<svg xmlns="http://www.w3.org/2000/svg" viewBox="0 0 512 512" style="height: 512px; width: 512px;"><defs><filter id="shadow-1" height="300%" width="300%" x="-100%" y="-100%"><feFlood flood-color="rgba(0, 0, 0, 1)" result="flood"></feFlood><feComposite in="flood" in2="SourceGraphic" operator="atop" result="composite"></feComposite><feGaussianBlur in="composite" stdDeviation="10" result="blur"></feGaussianBlur><feOffset result="offset"></feOffset><feComposite in="SourceGraphic" in2="offset" operator="over"></feComposite></filter><filter id="shadow-2" height="300%" width="300%" x="-100%" y="-100%"><feFlood flood-color="rgba(0, 0, 0, 1)" result="flood"></feFlood><feComposite in="flood" in2="SourceGraphic" operator="atop" result="composite"></feComposite><feGaussianBlur in="composite" stdDeviation="10" result="blur"></feGaussianBlur><feOffset result="offset"></feOffset><feComposite in="SourceGraphic" in2="offset" operator="over"></feComposite></filter><linearGradient x1="0" x2="0" y1="0" y2="1" id="lorc-shark-jaws-gradient-0"><stop offset="0%" stop-color="#000000" stop-opacity="1"></stop><stop offset="100%" stop-color="#8b572a" stop-opacity="1"></stop></linearGradient></defs><polygon points="429.95,429.95,256,502,82.05,429.95,10,256,82.05,82.05,256,10,429.95,82.05,502,256" fill="url(#lorc-shark-jaws-gradient-0)" stroke="#fff" stroke-opacity="1" stroke-width="10"></polygon><g class="" style="" transform="translate(0,0)"><g transform="translate(51.2, 51.2) scale(0.8, 0.8) rotate(75, 256, 256) skewX(0) skewY(0)"><path d="M257.97 20.22C150.394 88.557 72.1 275.18 69.874 494.374L445.062 494.374C442.862 275.18 365.542 88.557 257.968 20.218Z" class="selected" fill="#9b9b9b" fill-opacity="1" filter="url(#shadow-2)"></path><path d="M239.125 183.28L257.469 219.562L275.811 183.282C285.801 185.608 295.531 189.819 304.874 195.719L309.03 244.279L329.125 215.655C337.063 223.778 344.605 233.213 351.719 243.811L345.436 279L363.811 263.656C388.201 307.951 405.861 367.256 413.343 434.436C403.307 402.292 386.79 374.043 365.718 352.094L369.718 316.281L344.093 333C338.047 328.5 331.688 324.438 325.063 320.844L321.718 279.874L295.404 308.75C288.094 306.676 280.612 305.17 272.967 304.312L257.467 271.062L241.967 304.344C233.827 305.26 225.847 306.866 218.091 309.156L193.216 281.876L190.059 320.75C183.367 324.367 176.943 328.461 170.839 333L145.215 316.28L149.245 352.094C128.165 374.044 111.627 402.284 101.589 434.438C109.071 367.25 126.759 307.953 151.151 263.656L169.5 279L163.22 243.812C170.59 232.829 178.433 223.102 186.688 214.782L205.938 242.156L209.875 195.844C219.275 189.881 229.068 185.624 239.125 183.281Z" class="" fill="#000000" fill-opacity="1"></path></g></g></svg>