<svg xmlns="http://www.w3.org/2000/svg" viewBox="0 0 512 512" style="height: 512px; width: 512px;"><defs><filter id="shadow-1" height="300%" width="300%" x="-100%" y="-100%"><feFlood flood-color="rgba(0, 0, 0, 1)" result="flood"></feFlood><feComposite in="flood" in2="SourceGraphic" operator="atop" result="composite"></feComposite><feGaussianBlur in="composite" stdDeviation="10" result="blur"></feGaussianBlur><feOffset result="offset"></feOffset><feComposite in="SourceGraphic" in2="offset" operator="over"></feComposite></filter><filter id="shadow-2" height="300%" width="300%" x="-100%" y="-100%"><feFlood flood-color="rgba(0, 0, 0, 1)" result="flood"></feFlood><feComposite in="flood" in2="SourceGraphic" operator="atop" result="composite"></feComposite><feGaussianBlur in="composite" stdDeviation="10" result="blur"></feGaussianBlur><feOffset result="offset"></feOffset><feComposite in="SourceGraphic" in2="offset" operator="over"></feComposite></filter><filter id="shadow-3" height="300%" width="300%" x="-100%" y="-100%"><feFlood flood-color="rgba(0, 0, 0, 1)" result="flood"></feFlood><feComposite in="flood" in2="SourceGraphic" operator="atop" result="composite"></feComposite><feGaussianBlur in="composite" stdDeviation="10" result="blur"></feGaussianBlur><feOffset result="offset"></feOffset><feComposite in="SourceGraphic" in2="offset" operator="over"></feComposite></filter><linearGradient x1="0" x2="0" y1="0" y2="1" id="skoll-balaclava-gradient-0"><stop offset="0%" stop-color="#9013fe" stop-opacity="1"></stop><stop offset="100%" stop-color="#000000" stop-opacity="1"></stop></linearGradient></defs><polygon points="429.95,429.95,256,502,82.05,429.95,10,256,82.05,82.05,256,10,429.95,82.05,502,256" fill="url(#skoll-balaclava-gradient-0)" stroke="#fff" stroke-opacity="1" stroke-width="10"></polygon><g class="" style="" transform="translate(0,0)"><g transform="translate(51.2, 51.2) scale(0.8, 0.8) rotate(0, 256, 256) skewX(0) skewY(0)"><path d="M390.311 366.216C384.752 433.264 326.724 486 255.95 486C185.175 486 127.147 433.264 121.587 366.216C124.427 371.389 127.4 376.413 130.505 381.286C163.911 433.561 208.466 462.35 255.94 462.35C303.413 462.35 347.978 433.561 381.385 381.256C384.497 376.409 387.473 371.396 390.312 366.216Z" class="selected" fill="#ffe0af" fill-opacity="1" filter="url(#shadow-2)"></path><path d="M413.941 202.911C413.941 264.584 397.048 326.391 367.593 372.471C337.3 419.874 297.648 445.97 256 445.97C214.352 445.97 174.66 419.863 144.407 372.472C114.952 326.402 98.06 264.585 98.06 202.912C98.06 155.817 111.123 112.756 134.834 81.694C162.538 45.268 204.452 26 255.95 26C307.448 26 349.391 45.247 377.177 81.674C400.877 112.746 413.931 155.796 413.931 202.901Z" class="" fill="#ffe0af" fill-opacity="1" filter="url(#shadow-3)"></path><path d="M238.094 203.935C239.384 196.113 181.099 176.866 164.381 174.112C147.662 171.358 136.411 170.017 133.667 186.705C130.908 203.4 142.208 219.169 158.904 221.923C175.602 224.708 236.763 212.003 238.084 203.966Z" class="" fill="#4a4a4a" fill-opacity="1"></path><path d="M312.022 339.547C312.022 328.285 293.041 319.245 255.949 319.245C218.857 319.245 199.876 328.336 199.876 339.547C199.876 350.757 218.856 359.848 255.949 359.848C293.041 359.848 312.022 350.788 312.022 339.578Z" class="" fill="#4a4a4a" fill-opacity="1"></path><path d="M378.231 186.735C375.477 170.037 364.194 171.378 347.517 174.143C330.839 176.907 272.534 196.144 273.804 203.966C275.124 212.003 336.255 224.698 352.984 221.944C369.68 219.195 380.984 203.43 378.231 186.735Z" class="" fill="#4a4a4a" fill-opacity="1"></path></g></g></svg>