<svg xmlns="http://www.w3.org/2000/svg" viewBox="0 0 512 512" style="height: 512px; width: 512px;"><defs><filter id="shadow-1" height="300%" width="300%" x="-100%" y="-100%"><feFlood flood-color="rgba(248, 231, 28, 1)" result="flood"></feFlood><feComposite in="flood" in2="SourceGraphic" operator="atop" result="composite"></feComposite><feGaussianBlur in="composite" stdDeviation="15" result="blur"></feGaussianBlur><feOffset dx="0" dy="0" result="offset"></feOffset><feComposite in="SourceGraphic" in2="offset" operator="over"></feComposite></filter><filter id="shadow-2" height="300%" width="300%" x="-100%" y="-100%"><feFlood flood-color="rgba(248, 231, 28, 1)" result="flood"></feFlood><feComposite in="flood" in2="SourceGraphic" operator="atop" result="composite"></feComposite><feGaussianBlur in="composite" stdDeviation="10" result="blur"></feGaussianBlur><feOffset dx="0" dy="0" result="offset"></feOffset><feComposite in="SourceGraphic" in2="offset" operator="over"></feComposite></filter><linearGradient x1="0" x2="0" y1="0" y2="1" id="lorc-spark-spirit-gradient-0"><stop offset="0%" stop-color="#9b9b9b" stop-opacity="1"></stop><stop offset="100%" stop-color="#000000" stop-opacity="1"></stop></linearGradient><linearGradient x1="0" x2="0" y1="0" y2="1" id="lorc-spark-spirit-gradient-1"><stop offset="0%" stop-color="#d0021b" stop-opacity="1"></stop><stop offset="100%" stop-color="#f8e71c" stop-opacity="1"></stop></linearGradient><linearGradient x1="0" x2="0" y1="0" y2="1" id="lorc-spark-spirit-gradient-2"><stop offset="0%" stop-color="#d0021b" stop-opacity="1"></stop><stop offset="100%" stop-color="#f8e71c" stop-opacity="1"></stop></linearGradient><linearGradient x1="0" x2="0" y1="0" y2="1" id="lorc-spark-spirit-gradient-6"><stop offset="0%" stop-color="#d0021b" stop-opacity="1"></stop><stop offset="100%" stop-color="#f8e71c" stop-opacity="1"></stop></linearGradient><linearGradient x1="0" x2="0" y1="0" y2="1" id="lorc-spark-spirit-gradient-7"><stop offset="0%" stop-color="#d0021b" stop-opacity="1"></stop><stop offset="100%" stop-color="#f8e71c" stop-opacity="1"></stop></linearGradient><linearGradient x1="0" x2="0" y1="0" y2="1" id="lorc-spark-spirit-gradient-8"><stop offset="0%" stop-color="#d0021b" stop-opacity="1"></stop><stop offset="100%" stop-color="#f8e71c" stop-opacity="1"></stop></linearGradient><linearGradient x1="0" x2="0" y1="0" y2="1" id="lorc-spark-spirit-gradient-9"><stop offset="0%" stop-color="#d0021b" stop-opacity="1"></stop><stop offset="100%" stop-color="#f8e71c" stop-opacity="1"></stop></linearGradient><linearGradient x1="0" x2="0" y1="0" y2="1" id="lorc-spark-spirit-gradient-10"><stop offset="0%" stop-color="#d0021b" stop-opacity="1"></stop><stop offset="100%" stop-color="#f8e71c" stop-opacity="1"></stop></linearGradient><linearGradient x1="0" x2="0" y1="0" y2="1" id="lorc-spark-spirit-gradient-11"><stop offset="0%" stop-color="#d0021b" stop-opacity="1"></stop><stop offset="100%" stop-color="#f8e71c" stop-opacity="1"></stop></linearGradient></defs><polygon points="429.95,429.95,256,502,82.05,429.95,10,256,82.05,82.05,256,10,429.95,82.05,502,256" fill="url(#lorc-spark-spirit-gradient-0)" stroke="#fff" stroke-opacity="1" stroke-width="10"></polygon><g class="" style="" transform="translate(0,0)"><g transform="translate(25.6, 25.6) scale(0.9, 0.9) rotate(0, 256, 256) skewX(0) skewY(0)"><path d="M420.402 19.873C458.288 69.357 440.162 108.078 380.605 110.66C395.979 87.12 399.17 59.902 379.102 38.445C394.662 75.763 364.705 101.293 328.965 105.541C324.575 104.607 320.078 103.551 315.457 102.351C255.325 86.727 200.93 125.287 178.087 181.274C177.657 146.944 187.807 112.897 207.917 79.122C157.547 114.16 131.991 168.445 135.301 245.125L75.891 179.76L89.55 374.43L254.15 494.025L392.703 389.54L445.287 192.687L352.063 265.102C328.503 239.45 339.043 209.902 385.799 214.809C347.722 192.619 320.829 212.336 309.847 239.165C304.239 211.34 328.053 176.043 360.065 180.479C436.793 191.117 511.947 72.645 420.401 19.872Z" class="selected" fill="url(#lorc-spark-spirit-gradient-2)" filter="url(#shadow-2)"></path><path d="M119.838 272.05L214.615 345.264L111.52 324.044L140.783 320.994L119.838 272.051Z" class="" fill="#4a4a4a" fill-opacity="1"></path><path d="M375.318 284.287L364.695 309.549L392.495 309.269L380.4 332.706L284.15 347.144L375.318 284.286Z" class="" fill="#4a4a4a" fill-opacity="1"></path><path d="M204.305 360.13L246.561 422.682L257.808 378.588L275.648 411.186L332.222 362.646L324.992 387.014L376.702 365.74L322.217 427.56L331.871 397.594L255.661 469.214L208.087 414.078L211.263 441.561L136.636 363.968L197.802 393.966L204.307 360.132Z" class="" fill="#4a4a4a" fill-opacity="1"></path></g></g></svg>