<svg xmlns="http://www.w3.org/2000/svg" viewBox="0 0 512 512" style="height: 512px; width: 512px;"><defs><filter id="shadow-1" height="300%" width="300%" x="-100%" y="-100%"><feFlood flood-color="rgba(0, 0, 0, 1)" result="flood"></feFlood><feComposite in="flood" in2="SourceGraphic" operator="atop" result="composite"></feComposite><feGaussianBlur in="composite" stdDeviation="10" result="blur"></feGaussianBlur><feOffset dx="0" dy="0" result="offset"></feOffset><feComposite in="SourceGraphic" in2="offset" operator="over"></feComposite></filter><linearGradient x1="0" x2="0" y1="0" y2="1" id="carl-olsen-spider-face-gradient-0"><stop offset="0%" stop-color="#417505" stop-opacity="1"></stop><stop offset="100%" stop-color="#8c4100" stop-opacity="1"></stop></linearGradient><linearGradient x1="0" x2="1" y1="0" y2="1" id="carl-olsen-spider-face-gradient-5"><stop offset="0%" stop-color="#fc88fc" stop-opacity="1"></stop><stop offset="100%" stop-color="#bd10e0" stop-opacity="1"></stop></linearGradient><linearGradient x1="0" x2="1" y1="0" y2="1" id="carl-olsen-spider-face-gradient-6"><stop offset="0%" stop-color="#fc88fc" stop-opacity="1"></stop><stop offset="100%" stop-color="#bd10e0" stop-opacity="1"></stop></linearGradient><linearGradient x1="0" x2="1" y1="0" y2="1" id="carl-olsen-spider-face-gradient-9"><stop offset="0%" stop-color="#fc88fc" stop-opacity="1"></stop><stop offset="100%" stop-color="#bd10e0" stop-opacity="1"></stop></linearGradient><linearGradient x1="0" x2="1" y1="0" y2="1" id="carl-olsen-spider-face-gradient-10"><stop offset="0%" stop-color="#fc88fc" stop-opacity="1"></stop><stop offset="100%" stop-color="#bd10e0" stop-opacity="1"></stop></linearGradient></defs><polygon points="429.95,429.95,256,502,82.05,429.95,10,256,82.05,82.05,256,10,429.95,82.05,502,256" fill="url(#carl-olsen-spider-face-gradient-0)" stroke="#fff" stroke-opacity="1" stroke-width="10"></polygon><g class="" style="" transform="translate(0,0)"><g transform="translate(51.2, 51.2) scale(0.8, 0.8) rotate(0, 256, 256) skewX(0) skewY(0)"><path d="M16 17.188L16 253.844C16 274.324 35.324 294.209 64.156 311.314C75.66 305.248 87.416 301.75 98.969 301.75C127.992 301.75 152.422 322.05 161.062 349.938C162.95 350.433 164.814 350.801 166.687 351.281C180.511 341.361 192.942 339.064 201.374 339.064C218.926 339.064 234.411 348.752 243.499 363.376C247.787 363.584 252.216 363.906 256.279 363.906C260.456 363.906 264.786 363.726 269.219 363.47C278.306 348.78 293.805 339.062 311.405 339.062C319.485 339.062 331.255 341.26 344.375 350.156C347.03 349.42 349.671 348.58 352.343 347.812C361.559 321.028 385.523 301.782 413.813 301.782C424.083 301.782 434.523 304.497 444.811 309.312C475.325 291.6 496 271.923 496 253.97L496 17.187L16 17.187Z" class="" fill="#000000" fill-opacity="1"></path><path d="M83.53 143.468C104.25 143.468 121.03 160.264 121.03 181C121.03 201.72 104.25 218.5 83.53 218.5C62.81 218.5 46 201.72 46 181C46 160.28 62.81 143.47 83.53 143.47Z" class="" fill="#9013fe" fill-opacity="1"></path><path d="M428.656 143.468C449.376 143.468 466.186 160.264 466.186 181C466.188 201.72 449.376 218.5 428.656 218.5C407.936 218.5 391.126 201.72 391.126 181C391.126 160.28 407.936 143.47 428.656 143.47Z" class="" fill="#9013fe" fill-opacity="1"></path><path d="M76.97 155.282C67.858 155.282 60.47 162.672 60.47 171.782C60.47 180.894 67.858 188.282 76.97 188.282C86.08 188.282 93.47 180.894 93.47 171.782C93.47 162.672 86.08 155.282 76.97 155.282Z" class="" fill="url(#carl-olsen-spider-face-gradient-5)"></path><path d="M422.094 155.282C412.984 155.282 405.594 162.672 405.594 171.782C405.594 180.894 412.984 188.282 422.094 188.282C431.204 188.282 438.594 180.894 438.594 171.782C438.594 162.672 431.204 155.282 422.094 155.282Z" class="" fill="url(#carl-olsen-spider-face-gradient-6)"></path><path d="M181.064 167.252C214.199 167.252 241.064 194.1 241.064 227.252C241.078 260.388 214.214 287.282 181.064 287.282C147.927 287.282 121.031 260.388 121.031 227.252C121.031 194.116 147.928 167.252 181.063 167.252Z" class="" fill="#9013fe" fill-opacity="1"></path><path d="M331.124 167.252C364.261 167.252 391.124 194.1 391.124 227.252C391.141 260.388 364.277 287.282 331.124 287.282C297.989 287.282 271.094 260.388 271.094 227.252C271.094 194.116 297.989 167.252 331.124 167.252Z" class="" fill="#9013fe" fill-opacity="1"></path><path d="M170.563 182.5C153.986 182.5 140.533 195.923 140.533 212.5C140.533 229.077 153.986 242.53 170.563 242.53C187.141 242.53 200.563 229.077 200.563 212.5C200.563 195.923 187.141 182.5 170.563 182.5Z" class="" fill="url(#carl-olsen-spider-face-gradient-9)"></path><path d="M320.595 182.5C304.017 182.5 290.595 195.923 290.595 212.5C290.595 229.077 304.017 242.53 320.595 242.53C337.172 242.53 350.625 229.077 350.625 212.5C350.625 195.923 337.172 182.5 320.595 182.5Z" class="selected" fill="url(#carl-olsen-spider-face-gradient-10)"></path><path d="M100.03 193.563C96.4 193.563 93.437 196.523 93.437 200.156C93.437 203.788 96.399 206.719 100.031 206.719C103.664 206.719 106.595 203.787 106.595 200.155C106.595 196.523 103.665 193.561 100.032 193.561Z" class="" fill="#fc88fc" fill-opacity="1"></path><path d="M445.156 193.563C441.524 193.563 438.562 196.523 438.562 200.156C438.562 203.788 441.524 206.719 445.156 206.719C448.788 206.719 451.719 203.787 451.719 200.155C451.719 196.523 448.787 193.561 445.155 193.561Z" class="" fill="#fc88fc" fill-opacity="1"></path><path d="M207.47 242.875C199.18 242.875 192.47 249.585 192.47 257.875C192.47 266.165 199.18 272.905 207.47 272.905C215.757 272.905 222.47 266.165 222.47 257.875C222.47 249.585 215.757 242.875 207.47 242.875Z" class="" fill="#fc88fc" fill-opacity="1"></path><path d="M357.53 242.875C349.243 242.875 342.5 249.585 342.5 257.875C342.5 266.165 349.243 272.905 357.53 272.905C365.82 272.905 372.53 266.165 372.53 257.875C372.53 249.585 365.82 242.875 357.53 242.875Z" class="" fill="#fc88fc" fill-opacity="1"></path><path d="M413.844 324.25C388.26 324.25 370.688 347.495 370.688 371.72C402.096 397.43 422.438 439.012 422.438 485.812C422.438 488.82 422.378 491.82 422.281 494.812C451.386 469.884 469.221 436.272 469.221 399.312C469.221 378.688 463.656 359.147 453.688 341.532C439.32 329.275 425.733 324.25 413.845 324.25Z" class="" fill="#000000" fill-opacity="1"></path><path d="M99 324.28C87.128 324.28 73.51 329.275 59.125 341.53C49.157 359.147 43.625 378.72 43.625 399.344C43.625 436.288 61.443 469.9 90.531 494.844C90.421 491.868 90.376 488.852 90.376 485.844C90.376 439.044 110.749 397.446 142.156 371.75C142.173 347.51 124.586 324.28 99.001 324.28Z" class="" fill="#000000" fill-opacity="1"></path><path d="M201.406 360.125C193.262 360.125 183.918 363.625 174.062 372.25C167.23 384.65 163.406 398.425 163.406 412.938C163.406 438.954 175.656 462.604 195.626 480.156C195.546 478.06 195.5 475.956 195.5 473.844C195.5 440.9 209.48 411.627 231.03 393.531C231.03 376.508 218.958 360.126 201.406 360.126Z" class="" fill="#000000" fill-opacity="1"></path><path d="M311.436 360.125C293.886 360.125 281.813 376.507 281.813 393.563C303.365 411.659 317.313 440.915 317.313 473.875C317.313 475.987 317.299 478.091 317.219 480.188C337.186 462.62 349.436 438.985 349.436 412.968C349.436 398.458 345.628 384.681 338.78 372.281C328.925 363.658 319.598 360.111 311.438 360.126Z" class="" fill="#000000" fill-opacity="1"></path></g></g></svg>