<svg xmlns="http://www.w3.org/2000/svg" viewBox="0 0 512 512" style="height: 512px; width: 512px;"><defs><filter id="shadow-1" height="300%" width="300%" x="-100%" y="-100%"><feFlood flood-color="rgba(0, 0, 0, 1)" result="flood"></feFlood><feComposite in="flood" in2="SourceGraphic" operator="atop" result="composite"></feComposite><feGaussianBlur in="composite" stdDeviation="10" result="blur"></feGaussianBlur><feOffset dx="0" dy="0" result="offset"></feOffset><feComposite in="SourceGraphic" in2="offset" operator="over"></feComposite></filter><filter id="shadow-2" height="300%" width="300%" x="-100%" y="-100%"><feFlood flood-color="rgba(0, 0, 0, 1)" result="flood"></feFlood><feComposite in="flood" in2="SourceGraphic" operator="atop" result="composite"></feComposite><feGaussianBlur in="composite" stdDeviation="10" result="blur"></feGaussianBlur><feOffset dx="0" dy="0" result="offset"></feOffset><feComposite in="SourceGraphic" in2="offset" operator="over"></feComposite></filter><filter id="shadow-3" height="300%" width="300%" x="-100%" y="-100%"><feFlood flood-color="rgba(0, 0, 0, 1)" result="flood"></feFlood><feComposite in="flood" in2="SourceGraphic" operator="atop" result="composite"></feComposite><feGaussianBlur in="composite" stdDeviation="10" result="blur"></feGaussianBlur><feOffset dx="0" dy="0" result="offset"></feOffset><feComposite in="SourceGraphic" in2="offset" operator="over"></feComposite></filter><filter id="shadow-4" height="300%" width="300%" x="-100%" y="-100%"><feFlood flood-color="rgba(0, 0, 0, 1)" result="flood"></feFlood><feComposite in="flood" in2="SourceGraphic" operator="atop" result="composite"></feComposite><feGaussianBlur in="composite" stdDeviation="10" result="blur"></feGaussianBlur><feOffset dx="0" dy="0" result="offset"></feOffset><feComposite in="SourceGraphic" in2="offset" operator="over"></feComposite></filter><filter id="shadow-19" height="300%" width="300%" x="-100%" y="-100%"><feFlood flood-color="rgba(0, 0, 0, 1)" result="flood"></feFlood><feComposite in="flood" in2="SourceGraphic" operator="atop" result="composite"></feComposite><feGaussianBlur in="composite" stdDeviation="10" result="blur"></feGaussianBlur><feOffset dx="0" dy="0" result="offset"></feOffset><feComposite in="SourceGraphic" in2="offset" operator="over"></feComposite></filter><linearGradient x1="0" x2="1" y1="0" y2="1" id="caro-asercion-hyena-head-gradient-0"><stop offset="0%" stop-color="#96ee36" stop-opacity="1"></stop><stop offset="100%" stop-color="#000000" stop-opacity="1"></stop></linearGradient><linearGradient x1="0" x2="0" y1="0" y2="1" id="caro-asercion-hyena-head-gradient-1"><stop offset="0%" stop-color="#dfa649" stop-opacity="1"></stop><stop offset="100%" stop-color="#8b572a" stop-opacity="1"></stop></linearGradient><linearGradient x1="0" x2="0" y1="0" y2="1" id="caro-asercion-hyena-head-gradient-2"><stop offset="0%" stop-color="#b57204" stop-opacity="1"></stop><stop offset="100%" stop-color="#8b572a" stop-opacity="1"></stop></linearGradient><linearGradient x1="0" x2="0" y1="0" y2="1" id="caro-asercion-hyena-head-gradient-3"><stop offset="0%" stop-color="#b57204" stop-opacity="1"></stop><stop offset="100%" stop-color="#8b572a" stop-opacity="1"></stop></linearGradient><linearGradient x1="0" x2="0" y1="0" y2="1" id="caro-asercion-hyena-head-gradient-4"><stop offset="0%" stop-color="#b57204" stop-opacity="1"></stop><stop offset="100%" stop-color="#8b572a" stop-opacity="1"></stop></linearGradient></defs><polygon points="429.95,429.95,256,502,82.05,429.95,10,256,82.05,82.05,256,10,429.95,82.05,502,256" fill="url(#caro-asercion-hyena-head-gradient-0)" stroke="#fff" stroke-opacity="1" stroke-width="10"></polygon><g class="" style="" transform="translate(0,3)"><g transform="translate(51.2, 51.2) scale(0.8, 0.8) rotate(0, 256, 256) skewX(0) skewY(0)"><path d="M115.6 26.1C108.9 26.1 102.3 28.75 97.41 33.59C57.27 73.29 -2.739 153.3 96.48 205.9C69.23 165.9 37.71 125.5 96.58 60.8C100.7 56.26 106.9 54.09 112.9 55.13C119 56.16 124 60.29 126.4 65.96C138.1 94.65 155.8 138.2 155.8 138.2L132.3 122.7L142.7 150L124.8 156L141.6 169.3L182.6 135.8C182.6 135.8 156.4 78.66 139.3 41.27C135.7 33.56 128.7 28.06 120.3 26.53C118.7 26.24 117.2 26.1 115.6 26.1Z" class="" fill="url(#caro-asercion-hyena-head-gradient-2)" filter="url(#shadow-2)"></path><path d="M395.9 26.1C394.3 26.1 392.8 26.24 391.2 26.53C382.8 28.06 375.8 33.56 372.2 41.27C355.1 78.66 328.9 135.8 328.9 135.8L369.9 169.3L386.7 156L368.8 150L379.2 122.7L355.7 138.2C355.7 138.2 373.4 94.65 385.1 65.96C387.5 60.29 392.5 56.16 398.6 55.13C404.6 54.09 410.8 56.26 414.9 60.8C473.8 125.5 442.3 165.9 415 205.9C514.2 153.3 454.2 73.29 414.1 33.59C409.2 28.75 402.6 26.1 395.9 26.1Z" class="" fill="url(#caro-asercion-hyena-head-gradient-3)" filter="url(#shadow-3)"></path><path d="M255.8 86.41C249.3 125.6 226.7 151.6 226.7 151.6L232.1 105.8L82.05 278L106.7 276.7L86.75 298.2L177.7 452.7L255.8 481L333.9 452.7L424.9 298.2L405 276.7L429.6 278L279.5 105.8L285 151.6C285 151.6 262.4 125.6 255.8 86.41Z" class="selected" fill="url(#caro-asercion-hyena-head-gradient-4)" filter="url(#shadow-4)"></path><path d="M183.9 269.9C210.5 269.6 225.8 297.4 209.6 338.2C194.1 288.4 161 321.8 161 321.8L144 306C144 306 149.9 301.1 158.2 296.1L148.6 284C161.3 274.4 173.4 270 183.9 269.9Z" class="" fill="#4a4a4a" fill-opacity="1"></path><path d="M327.8 269.9C338.3 270 350.4 274.4 363.1 284L353.4 296.1C361.8 301.1 367.7 306 367.7 306L350.7 321.8C350.7 321.8 317.5 288.4 302.1 338.2C285.9 297.4 301.2 269.6 327.8 269.9Z" class="" fill="#4a4a4a" fill-opacity="1"></path><path d="M255.8 329.8L297.5 352.1C297.9 368.4 296.5 377.9 283.9 370.7C286 341.8 247.8 387 292.8 379.5C292.8 379.5 281.4 395.9 256.2 396.1L255.5 396.1C230.3 395.9 218.8 379.5 218.8 379.5C263.9 387 225.7 341.8 227.8 370.7C215.1 377.9 213.7 368.4 214.2 352.1L255.8 329.8Z" class="" fill="#4a4a4a" fill-opacity="1"></path><path d="M183.3 410.3L216.1 427.7L255.8 414.7L295.5 427.7L328.4 410.3L300.2 445.1L211.4 445.1L183.3 410.3Z" class="" fill="#4a4a4a" fill-opacity="1"></path></g></g></svg>