<svg xmlns="http://www.w3.org/2000/svg" viewBox="0 0 512 512" style="height: 512px; width: 512px;"><defs><linearGradient x1="0" x2="0" y1="0" y2="1" id="lorc-insect-jaws-gradient-0"><stop offset="0%" stop-color="#4a4a4a" stop-opacity="1"></stop><stop offset="100%" stop-color="#000000" stop-opacity="1"></stop></linearGradient></defs><polygon points="429.95,429.95,256,502,82.05,429.95,10,256,82.05,82.05,256,10,429.95,82.05,502,256" fill="url(#lorc-insect-jaws-gradient-0)" stroke="#fff" stroke-opacity="1" stroke-width="10"></polygon><g class="" style="" transform="translate(0,0)"><g transform="translate(51.2, 51.2) scale(0.8, 0.8) rotate(0, 256, 256) skewX(0) skewY(0)"><path d="M141.063 54.72C135.491 54.64 130.453 56.303 126.813 59.844C117.851 68.559 120.855 85.367 133.531 97.374C146.208 109.384 163.759 112.059 172.721 103.344C181.681 94.629 178.646 77.82 165.971 65.814C158.443 58.684 149.206 54.836 141.064 54.719Z" class="selected" fill="#d0021b" fill-opacity="1"></path><path d="M372.219 54.72C364.075 54.836 354.807 58.683 347.279 65.813C334.604 77.82 331.599 94.629 340.562 103.343C349.522 112.059 367.072 109.383 379.749 97.375C392.425 85.367 395.429 68.559 386.469 59.845C382.827 56.303 377.789 54.639 372.219 54.719Z" class="" fill="#d0021b" fill-opacity="1"></path><path d="M189.279 122.03C181.009 122.125 173.432 124.33 168.469 128.656C158.539 137.31 162.903 151.131 178.219 159.5C193.533 167.87 214.009 167.623 223.937 158.97C233.865 150.315 229.47 136.525 214.155 128.156C206.498 123.972 197.552 121.938 189.28 122.031Z" class="" fill="#d0021b" fill-opacity="1"></path><path d="M323.969 122.03C315.696 121.938 306.749 123.972 299.093 128.156C283.778 136.526 279.413 150.316 289.343 158.969C299.273 167.622 319.746 167.869 335.063 159.499C350.377 151.129 354.74 137.309 344.811 128.655C339.847 124.328 332.241 122.125 323.968 122.03Z" class="" fill="#d0021b" fill-opacity="1"></path><path d="M140.905 175.437C135.222 185.822 126.535 196.072 114.968 205.187C90.952 224.11 60.688 233.341 35.468 231.844C33.098 244.042 32.092 256.324 32.092 269.156C32.092 361.728 95.976 440.631 185.186 468.406C158.141 447.369 158.666 397.646 178.404 372.876C96.7 307.601 124.084 237.572 198.092 204.438C178.124 198.538 160.057 189.684 144.842 178.468C143.502 177.48 142.202 176.464 140.904 175.438Z" class="" fill="#7ed321" fill-opacity="1"></path><path d="M371.78 175.907C370.678 176.777 369.564 177.631 368.438 178.469C354.73 188.571 338.708 196.787 321.063 202.624C392.203 234.584 407.048 311.161 334.031 372.874C359.151 397.434 348.629 446.717 327.251 468.404C416.461 440.63 481.189 361.727 481.189 269.154C481.189 256.324 479.339 244.041 476.969 231.844C451.749 233.34 421.485 224.109 397.469 205.187C386.076 196.209 377.469 186.127 371.782 175.905Z" class="" fill="#7ed321" fill-opacity="1"></path><path d="M308.813 206.219C296.767 209.333 284.091 211.377 270.969 212.249C281.513 220.231 288.936 239.549 288.936 262.124C288.936 282.144 283.086 299.584 274.406 308.844C301.181 301.979 321.093 276.194 321.093 245.404C321.093 230.684 316.498 217.128 308.813 206.218Z" class="" fill="#417505" fill-opacity="1"></path><path d="M210.563 207.687C203.475 218.339 199.25 231.33 199.25 245.405C199.25 276.159 219.137 301.945 245.875 308.843C237.203 299.579 231.375 282.133 231.375 262.123C231.375 239.879 238.605 220.783 248.905 212.593C235.65 212.121 222.805 210.443 210.562 207.687Z" class="" fill="#417505" fill-opacity="1"></path></g></g></svg>