<svg xmlns="http://www.w3.org/2000/svg" viewBox="0 0 512 512" style="height: 512px; width: 512px;"><defs><filter id="shadow-1" height="300%" width="300%" x="-100%" y="-100%"><feFlood flood-color="rgba(0, 0, 0, 1)" result="flood"></feFlood><feComposite in="flood" in2="SourceGraphic" operator="atop" result="composite"></feComposite><feGaussianBlur in="composite" stdDeviation="10" result="blur"></feGaussianBlur><feOffset dx="0" dy="0" result="offset"></feOffset><feComposite in="SourceGraphic" in2="offset" operator="over"></feComposite></filter><filter id="shadow-2" height="300%" width="300%" x="-100%" y="-100%"><feFlood flood-color="rgba(0, 0, 0, 1)" result="flood"></feFlood><feComposite in="flood" in2="SourceGraphic" operator="atop" result="composite"></feComposite><feGaussianBlur in="composite" stdDeviation="10" result="blur"></feGaussianBlur><feOffset dx="0" dy="0" result="offset"></feOffset><feComposite in="SourceGraphic" in2="offset" operator="over"></feComposite></filter><filter id="shadow-3" height="300%" width="300%" x="-100%" y="-100%"><feFlood flood-color="rgba(0, 0, 0, 1)" result="flood"></feFlood><feComposite in="flood" in2="SourceGraphic" operator="atop" result="composite"></feComposite><feGaussianBlur in="composite" stdDeviation="10" result="blur"></feGaussianBlur><feOffset dx="0" dy="0" result="offset"></feOffset><feComposite in="SourceGraphic" in2="offset" operator="over"></feComposite></filter><filter id="shadow-4" height="300%" width="300%" x="-100%" y="-100%"><feFlood flood-color="rgba(0, 0, 0, 1)" result="flood"></feFlood><feComposite in="flood" in2="SourceGraphic" operator="atop" result="composite"></feComposite><feGaussianBlur in="composite" stdDeviation="10" result="blur"></feGaussianBlur><feOffset dx="0" dy="0" result="offset"></feOffset><feComposite in="SourceGraphic" in2="offset" operator="over"></feComposite></filter><filter id="shadow-5" height="300%" width="300%" x="-100%" y="-100%"><feFlood flood-color="rgba(0, 0, 0, 1)" result="flood"></feFlood><feComposite in="flood" in2="SourceGraphic" operator="atop" result="composite"></feComposite><feGaussianBlur in="composite" stdDeviation="10" result="blur"></feGaussianBlur><feOffset dx="0" dy="0" result="offset"></feOffset><feComposite in="SourceGraphic" in2="offset" operator="over"></feComposite></filter><filter id="shadow-6" height="300%" width="300%" x="-100%" y="-100%"><feFlood flood-color="rgba(0, 0, 0, 1)" result="flood"></feFlood><feComposite in="flood" in2="SourceGraphic" operator="atop" result="composite"></feComposite><feGaussianBlur in="composite" stdDeviation="10" result="blur"></feGaussianBlur><feOffset dx="0" dy="0" result="offset"></feOffset><feComposite in="SourceGraphic" in2="offset" operator="over"></feComposite></filter><filter id="shadow-7" height="300%" width="300%" x="-100%" y="-100%"><feFlood flood-color="rgba(0, 0, 0, 1)" result="flood"></feFlood><feComposite in="flood" in2="SourceGraphic" operator="atop" result="composite"></feComposite><feGaussianBlur in="composite" stdDeviation="10" result="blur"></feGaussianBlur><feOffset dx="0" dy="0" result="offset"></feOffset><feComposite in="SourceGraphic" in2="offset" operator="over"></feComposite></filter><filter id="shadow-8" height="300%" width="300%" x="-100%" y="-100%"><feFlood flood-color="rgba(0, 0, 0, 1)" result="flood"></feFlood><feComposite in="flood" in2="SourceGraphic" operator="atop" result="composite"></feComposite><feGaussianBlur in="composite" stdDeviation="10" result="blur"></feGaussianBlur><feOffset dx="0" dy="0" result="offset"></feOffset><feComposite in="SourceGraphic" in2="offset" operator="over"></feComposite></filter><filter id="shadow-9" height="300%" width="300%" x="-100%" y="-100%"><feFlood flood-color="rgba(0, 0, 0, 1)" result="flood"></feFlood><feComposite in="flood" in2="SourceGraphic" operator="atop" result="composite"></feComposite><feGaussianBlur in="composite" stdDeviation="10" result="blur"></feGaussianBlur><feOffset dx="0" dy="0" result="offset"></feOffset><feComposite in="SourceGraphic" in2="offset" operator="over"></feComposite></filter><filter id="shadow-10" height="300%" width="300%" x="-100%" y="-100%"><feFlood flood-color="rgba(0, 0, 0, 1)" result="flood"></feFlood><feComposite in="flood" in2="SourceGraphic" operator="atop" result="composite"></feComposite><feGaussianBlur in="composite" stdDeviation="10" result="blur"></feGaussianBlur><feOffset dx="0" dy="0" result="offset"></feOffset><feComposite in="SourceGraphic" in2="offset" operator="over"></feComposite></filter><filter id="shadow-11" height="300%" width="300%" x="-100%" y="-100%"><feFlood flood-color="rgba(0, 0, 0, 1)" result="flood"></feFlood><feComposite in="flood" in2="SourceGraphic" operator="atop" result="composite"></feComposite><feGaussianBlur in="composite" stdDeviation="10" result="blur"></feGaussianBlur><feOffset dx="0" dy="0" result="offset"></feOffset><feComposite in="SourceGraphic" in2="offset" operator="over"></feComposite></filter><filter id="shadow-12" height="300%" width="300%" x="-100%" y="-100%"><feFlood flood-color="rgba(0, 0, 0, 1)" result="flood"></feFlood><feComposite in="flood" in2="SourceGraphic" operator="atop" result="composite"></feComposite><feGaussianBlur in="composite" stdDeviation="10" result="blur"></feGaussianBlur><feOffset dx="0" dy="0" result="offset"></feOffset><feComposite in="SourceGraphic" in2="offset" operator="over"></feComposite></filter><filter id="shadow-13" height="300%" width="300%" x="-100%" y="-100%"><feFlood flood-color="rgba(0, 0, 0, 1)" result="flood"></feFlood><feComposite in="flood" in2="SourceGraphic" operator="atop" result="composite"></feComposite><feGaussianBlur in="composite" stdDeviation="10" result="blur"></feGaussianBlur><feOffset dx="0" dy="0" result="offset"></feOffset><feComposite in="SourceGraphic" in2="offset" operator="over"></feComposite></filter><filter id="shadow-14" height="300%" width="300%" x="-100%" y="-100%"><feFlood flood-color="rgba(0, 0, 0, 1)" result="flood"></feFlood><feComposite in="flood" in2="SourceGraphic" operator="atop" result="composite"></feComposite><feGaussianBlur in="composite" stdDeviation="10" result="blur"></feGaussianBlur><feOffset dx="0" dy="0" result="offset"></feOffset><feComposite in="SourceGraphic" in2="offset" operator="over"></feComposite></filter><filter id="shadow-15" height="300%" width="300%" x="-100%" y="-100%"><feFlood flood-color="rgba(0, 0, 0, 1)" result="flood"></feFlood><feComposite in="flood" in2="SourceGraphic" operator="atop" result="composite"></feComposite><feGaussianBlur in="composite" stdDeviation="10" result="blur"></feGaussianBlur><feOffset dx="0" dy="0" result="offset"></feOffset><feComposite in="SourceGraphic" in2="offset" operator="over"></feComposite></filter><filter id="shadow-16" height="300%" width="300%" x="-100%" y="-100%"><feFlood flood-color="rgba(0, 0, 0, 1)" result="flood"></feFlood><feComposite in="flood" in2="SourceGraphic" operator="atop" result="composite"></feComposite><feGaussianBlur in="composite" stdDeviation="10" result="blur"></feGaussianBlur><feOffset dx="0" dy="0" result="offset"></feOffset><feComposite in="SourceGraphic" in2="offset" operator="over"></feComposite></filter><filter id="shadow-17" height="300%" width="300%" x="-100%" y="-100%"><feFlood flood-color="rgba(0, 0, 0, 1)" result="flood"></feFlood><feComposite in="flood" in2="SourceGraphic" operator="atop" result="composite"></feComposite><feGaussianBlur in="composite" stdDeviation="10" result="blur"></feGaussianBlur><feOffset dx="0" dy="0" result="offset"></feOffset><feComposite in="SourceGraphic" in2="offset" operator="over"></feComposite></filter><filter id="shadow-18" height="300%" width="300%" x="-100%" y="-100%"><feFlood flood-color="rgba(0, 0, 0, 1)" result="flood"></feFlood><feComposite in="flood" in2="SourceGraphic" operator="atop" result="composite"></feComposite><feGaussianBlur in="composite" stdDeviation="10" result="blur"></feGaussianBlur><feOffset dx="0" dy="0" result="offset"></feOffset><feComposite in="SourceGraphic" in2="offset" operator="over"></feComposite></filter><filter id="shadow-19" height="300%" width="300%" x="-100%" y="-100%"><feFlood flood-color="rgba(0, 0, 0, 1)" result="flood"></feFlood><feComposite in="flood" in2="SourceGraphic" operator="atop" result="composite"></feComposite><feGaussianBlur in="composite" stdDeviation="10" result="blur"></feGaussianBlur><feOffset dx="0" dy="0" result="offset"></feOffset><feComposite in="SourceGraphic" in2="offset" operator="over"></feComposite></filter><filter id="shadow-20" height="300%" width="300%" x="-100%" y="-100%"><feFlood flood-color="rgba(0, 0, 0, 1)" result="flood"></feFlood><feComposite in="flood" in2="SourceGraphic" operator="atop" result="composite"></feComposite><feGaussianBlur in="composite" stdDeviation="10" result="blur"></feGaussianBlur><feOffset dx="0" dy="0" result="offset"></feOffset><feComposite in="SourceGraphic" in2="offset" operator="over"></feComposite></filter><filter id="shadow-21" height="300%" width="300%" x="-100%" y="-100%"><feFlood flood-color="rgba(0, 0, 0, 1)" result="flood"></feFlood><feComposite in="flood" in2="SourceGraphic" operator="atop" result="composite"></feComposite><feGaussianBlur in="composite" stdDeviation="10" result="blur"></feGaussianBlur><feOffset dx="0" dy="0" result="offset"></feOffset><feComposite in="SourceGraphic" in2="offset" operator="over"></feComposite></filter><filter id="shadow-22" height="300%" width="300%" x="-100%" y="-100%"><feFlood flood-color="rgba(0, 0, 0, 1)" result="flood"></feFlood><feComposite in="flood" in2="SourceGraphic" operator="atop" result="composite"></feComposite><feGaussianBlur in="composite" stdDeviation="10" result="blur"></feGaussianBlur><feOffset dx="0" dy="0" result="offset"></feOffset><feComposite in="SourceGraphic" in2="offset" operator="over"></feComposite></filter><filter id="shadow-23" height="300%" width="300%" x="-100%" y="-100%"><feFlood flood-color="rgba(0, 0, 0, 1)" result="flood"></feFlood><feComposite in="flood" in2="SourceGraphic" operator="atop" result="composite"></feComposite><feGaussianBlur in="composite" stdDeviation="10" result="blur"></feGaussianBlur><feOffset dx="0" dy="0" result="offset"></feOffset><feComposite in="SourceGraphic" in2="offset" operator="over"></feComposite></filter><filter id="shadow-24" height="300%" width="300%" x="-100%" y="-100%"><feFlood flood-color="rgba(0, 0, 0, 1)" result="flood"></feFlood><feComposite in="flood" in2="SourceGraphic" operator="atop" result="composite"></feComposite><feGaussianBlur in="composite" stdDeviation="10" result="blur"></feGaussianBlur><feOffset dx="0" dy="0" result="offset"></feOffset><feComposite in="SourceGraphic" in2="offset" operator="over"></feComposite></filter><filter id="shadow-25" height="300%" width="300%" x="-100%" y="-100%"><feFlood flood-color="rgba(0, 0, 0, 1)" result="flood"></feFlood><feComposite in="flood" in2="SourceGraphic" operator="atop" result="composite"></feComposite><feGaussianBlur in="composite" stdDeviation="10" result="blur"></feGaussianBlur><feOffset dx="0" dy="0" result="offset"></feOffset><feComposite in="SourceGraphic" in2="offset" operator="over"></feComposite></filter><filter id="shadow-26" height="300%" width="300%" x="-100%" y="-100%"><feFlood flood-color="rgba(0, 0, 0, 1)" result="flood"></feFlood><feComposite in="flood" in2="SourceGraphic" operator="atop" result="composite"></feComposite><feGaussianBlur in="composite" stdDeviation="10" result="blur"></feGaussianBlur><feOffset dx="0" dy="0" result="offset"></feOffset><feComposite in="SourceGraphic" in2="offset" operator="over"></feComposite></filter><filter id="shadow-27" height="300%" width="300%" x="-100%" y="-100%"><feFlood flood-color="rgba(0, 0, 0, 1)" result="flood"></feFlood><feComposite in="flood" in2="SourceGraphic" operator="atop" result="composite"></feComposite><feGaussianBlur in="composite" stdDeviation="10" result="blur"></feGaussianBlur><feOffset dx="0" dy="0" result="offset"></feOffset><feComposite in="SourceGraphic" in2="offset" operator="over"></feComposite></filter><filter id="shadow-28" height="300%" width="300%" x="-100%" y="-100%"><feFlood flood-color="rgba(0, 0, 0, 1)" result="flood"></feFlood><feComposite in="flood" in2="SourceGraphic" operator="atop" result="composite"></feComposite><feGaussianBlur in="composite" stdDeviation="10" result="blur"></feGaussianBlur><feOffset dx="0" dy="0" result="offset"></feOffset><feComposite in="SourceGraphic" in2="offset" operator="over"></feComposite></filter><filter id="shadow-29" height="300%" width="300%" x="-100%" y="-100%"><feFlood flood-color="rgba(0, 0, 0, 1)" result="flood"></feFlood><feComposite in="flood" in2="SourceGraphic" operator="atop" result="composite"></feComposite><feGaussianBlur in="composite" stdDeviation="10" result="blur"></feGaussianBlur><feOffset dx="0" dy="0" result="offset"></feOffset><feComposite in="SourceGraphic" in2="offset" operator="over"></feComposite></filter><filter id="shadow-31" height="300%" width="300%" x="-100%" y="-100%"><feFlood flood-color="rgba(0, 0, 0, 1)" result="flood"></feFlood><feComposite in="flood" in2="SourceGraphic" operator="atop" result="composite"></feComposite><feGaussianBlur in="composite" stdDeviation="10" result="blur"></feGaussianBlur><feOffset dx="0" dy="0" result="offset"></feOffset><feComposite in="SourceGraphic" in2="offset" operator="over"></feComposite></filter><filter id="shadow-32" height="300%" width="300%" x="-100%" y="-100%"><feFlood flood-color="rgba(0, 0, 0, 1)" result="flood"></feFlood><feComposite in="flood" in2="SourceGraphic" operator="atop" result="composite"></feComposite><feGaussianBlur in="composite" stdDeviation="10" result="blur"></feGaussianBlur><feOffset dx="0" dy="0" result="offset"></feOffset><feComposite in="SourceGraphic" in2="offset" operator="over"></feComposite></filter><filter id="shadow-33" height="300%" width="300%" x="-100%" y="-100%"><feFlood flood-color="rgba(0, 0, 0, 1)" result="flood"></feFlood><feComposite in="flood" in2="SourceGraphic" operator="atop" result="composite"></feComposite><feGaussianBlur in="composite" stdDeviation="10" result="blur"></feGaussianBlur><feOffset dx="0" dy="0" result="offset"></feOffset><feComposite in="SourceGraphic" in2="offset" operator="over"></feComposite></filter><filter id="shadow-34" height="300%" width="300%" x="-100%" y="-100%"><feFlood flood-color="rgba(0, 0, 0, 1)" result="flood"></feFlood><feComposite in="flood" in2="SourceGraphic" operator="atop" result="composite"></feComposite><feGaussianBlur in="composite" stdDeviation="10" result="blur"></feGaussianBlur><feOffset dx="0" dy="0" result="offset"></feOffset><feComposite in="SourceGraphic" in2="offset" operator="over"></feComposite></filter><linearGradient x1="0" x2="0" y1="0" y2="1" id="delapouite-mimic-chest-gradient-0"><stop offset="0%" stop-color="#a94a4a" stop-opacity="1"></stop><stop offset="100%" stop-color="#1c0008" stop-opacity="1"></stop></linearGradient><linearGradient x1="0" x2="1" y1="0" y2="1" id="delapouite-mimic-chest-gradient-1"><stop offset="0%" stop-color="#ffe0af" stop-opacity="1"></stop><stop offset="100%" stop-color="#643105" stop-opacity="1"></stop></linearGradient><linearGradient x1="0" x2="0" y1="0" y2="1" id="delapouite-mimic-chest-gradient-4"><stop offset="0%" stop-color="#b57204" stop-opacity="1"></stop><stop offset="100%" stop-color="#8b572a" stop-opacity="1"></stop></linearGradient><linearGradient x1="0" x2="0" y1="0" y2="1" id="delapouite-mimic-chest-gradient-5"><stop offset="0%" stop-color="#b57204" stop-opacity="1"></stop><stop offset="100%" stop-color="#8b572a" stop-opacity="1"></stop></linearGradient><linearGradient x1="0" x2="0" y1="0" y2="1" id="delapouite-mimic-chest-gradient-7"><stop offset="0%" stop-color="#b57204" stop-opacity="1"></stop><stop offset="100%" stop-color="#8b572a" stop-opacity="1"></stop></linearGradient><linearGradient x1="0" x2="1" y1="0" y2="1" id="delapouite-mimic-chest-gradient-9"><stop offset="0%" stop-color="#b57204" stop-opacity="1"></stop><stop offset="100%" stop-color="#8b572a" stop-opacity="1"></stop></linearGradient><linearGradient x1="0" x2="0" y1="0" y2="1" id="delapouite-mimic-chest-gradient-11"><stop offset="0%" stop-color="#ffe0af" stop-opacity="1"></stop><stop offset="100%" stop-color="#ffffff" stop-opacity="1"></stop></linearGradient><linearGradient x1="0" x2="0" y1="0" y2="1" id="delapouite-mimic-chest-gradient-12"><stop offset="0%" stop-color="#ffe0af" stop-opacity="1"></stop><stop offset="100%" stop-color="#ffffff" stop-opacity="1"></stop></linearGradient><linearGradient x1="0" x2="0" y1="0" y2="1" id="delapouite-mimic-chest-gradient-13"><stop offset="0%" stop-color="#ffe0af" stop-opacity="1"></stop><stop offset="100%" stop-color="#ffffff" stop-opacity="1"></stop></linearGradient><linearGradient x1="0" x2="0" y1="0" y2="1" id="delapouite-mimic-chest-gradient-14"><stop offset="0%" stop-color="#ffe0af" stop-opacity="1"></stop><stop offset="100%" stop-color="#ffffff" stop-opacity="1"></stop></linearGradient><linearGradient x1="0" x2="0" y1="0" y2="1" id="delapouite-mimic-chest-gradient-15"><stop offset="0%" stop-color="#ffe0af" stop-opacity="1"></stop><stop offset="100%" stop-color="#ffffff" stop-opacity="1"></stop></linearGradient><linearGradient x1="0" x2="0" y1="0" y2="1" id="delapouite-mimic-chest-gradient-16"><stop offset="0%" stop-color="#ffe0af" stop-opacity="1"></stop><stop offset="100%" stop-color="#ffffff" stop-opacity="1"></stop></linearGradient><linearGradient x1="0" x2="1" y1="0" y2="1" id="delapouite-mimic-chest-gradient-17"><stop offset="0%" stop-color="#b57204" stop-opacity="1"></stop><stop offset="100%" stop-color="#ffffff" stop-opacity="1"></stop></linearGradient><linearGradient x1="0" x2="1" y1="0" y2="1" id="delapouite-mimic-chest-gradient-18"><stop offset="0%" stop-color="#b57204" stop-opacity="1"></stop><stop offset="100%" stop-color="#ffffff" stop-opacity="1"></stop></linearGradient><linearGradient x1="0" x2="0" y1="0" y2="1" id="delapouite-mimic-chest-gradient-19"><stop offset="0%" stop-color="#ffffff" stop-opacity="1"></stop><stop offset="100%" stop-color="#ffe0af" stop-opacity="1"></stop></linearGradient><linearGradient x1="0" x2="0" y1="0" y2="1" id="delapouite-mimic-chest-gradient-20"><stop offset="0%" stop-color="#ffffff" stop-opacity="1"></stop><stop offset="100%" stop-color="#ffe0af" stop-opacity="1"></stop></linearGradient><linearGradient x1="0" x2="0" y1="0" y2="1" id="delapouite-mimic-chest-gradient-21"><stop offset="0%" stop-color="#ffffff" stop-opacity="1"></stop><stop offset="100%" stop-color="#b57204" stop-opacity="1"></stop></linearGradient><linearGradient x1="0" x2="0" y1="0" y2="1" id="delapouite-mimic-chest-gradient-22"><stop offset="0%" stop-color="#ffffff" stop-opacity="1"></stop><stop offset="100%" stop-color="#b57204" stop-opacity="1"></stop></linearGradient><linearGradient x1="0" x2="1" y1="0" y2="1" id="delapouite-mimic-chest-gradient-23"><stop offset="0%" stop-color="#ffffff" stop-opacity="1"></stop><stop offset="100%" stop-color="#ffe0af" stop-opacity="1"></stop></linearGradient><linearGradient x1="0" x2="0" y1="0" y2="1" id="delapouite-mimic-chest-gradient-24"><stop offset="0%" stop-color="#ffffff" stop-opacity="1"></stop><stop offset="100%" stop-color="#ffe0af" stop-opacity="1"></stop></linearGradient><linearGradient x1="0" x2="0" y1="0" y2="1" id="delapouite-mimic-chest-gradient-25"><stop offset="0%" stop-color="#ffffff" stop-opacity="1"></stop><stop offset="100%" stop-color="#ffe0af" stop-opacity="1"></stop></linearGradient><linearGradient x1="0" x2="0" y1="0" y2="1" id="delapouite-mimic-chest-gradient-26"><stop offset="0%" stop-color="#ffffff" stop-opacity="1"></stop><stop offset="100%" stop-color="#ffe0af" stop-opacity="1"></stop></linearGradient><linearGradient x1="0" x2="0" y1="0" y2="1" id="delapouite-mimic-chest-gradient-28"><stop offset="0%" stop-color="#b57204" stop-opacity="1"></stop><stop offset="100%" stop-color="#643105" stop-opacity="1"></stop></linearGradient></defs><polygon points="429.95,429.95,256,502,82.05,429.95,10,256,82.05,82.05,256,10,429.95,82.05,502,256" fill="url(#delapouite-mimic-chest-gradient-0)" stroke="#fff" stroke-opacity="1" stroke-width="10"></polygon><g class="" style="" transform="translate(0,0)"><g transform="translate(102.4, 102.4) scale(0.6, 0.6) rotate(0, 256, 256) skewX(0) skewY(0)"><path d="M165.3 45.79C169.8 55.06 188.7 67.45 209.9 76.33C221.8 81.34 233.7 85.33 244.5 88.65C227.8 63.2 208.7 38.96 187.2 23.49C174.9 14.59 162.6 39.28 165.3 45.79Z" class="selected" fill="#b57204" fill-opacity="1" filter="url(#shadow-2)"></path><path d="M444.7 25.6C425.1 43.31 403.6 64.77 386.6 90.02C397.4 86.83 409.4 82.99 421.4 78.13C442.7 69.51 461.7 57.37 466.3 48.15C471.1 37.64 453.6 17.56 444.7 25.6Z" class="" fill="#b57204" fill-opacity="1" filter="url(#shadow-3)"></path><path d="M263.5 84.68C270.1 95.68 275 105.8 281 117.6L261.5 112.3C256.6 111 250 109.1 242.4 106.8C241.6 111.3 239.8 115.4 237.2 118.9C284.9 117.4 337.5 117.3 394.5 121.2C391.4 117.5 389.2 113.1 388.1 108.3C380.6 110.4 374.1 112.2 369.3 113.4L349.7 118.4C355.3 107.7 361.4 95.75 367.3 86.4C330.9 83.99 298.6 83.62 263.5 84.68Z" class="" fill="url(#delapouite-mimic-chest-gradient-4)" filter="url(#shadow-4)"></path><path d="M189.8 88.74C164.1 90.74 137.6 93.36 110.3 96.56C153 111 157.1 111.6 193.6 120.6C189.2 115.5 186.6 108.9 186.6 101.8C186.6 97.15 187.8 92.69 189.8 88.74Z" class="" fill="url(#delapouite-mimic-chest-gradient-5)" filter="url(#shadow-5)"></path><path d="M207.2 94.66C205.6 96.51 204.6 99.05 204.6 101.8C204.6 107.9 209.2 112.4 214.7 112.4C221.6 110.7 224.7 106.4 224.8 101.1C219 99.15 213.1 97.03 207.2 94.66Z" class="" fill="#fc88fc" fill-opacity="1" filter="url(#shadow-6)"></path><path d="M443 96.16C443.5 98.15 443.7 100.2 443.7 102.4C443.7 111.2 439.7 119.2 433.4 124.5C449 126.1 465 128 481.3 130.3L459 99.65C453.8 98.45 448.5 97.24 443 96.16Z" class="" fill="url(#delapouite-mimic-chest-gradient-7)" filter="url(#shadow-7)"></path><path d="M424 96.44C417.7 98.85 411.5 101 405.5 102.9C405.8 108.8 410.3 113 415.6 113C421.1 113 425.7 108.5 425.7 102.4C425.7 100.1 425.1 98.15 424 96.44Z" class="" fill="#fc88fc" fill-opacity="1" filter="url(#shadow-8)"></path><path d="M30.62 235.6C57.11 193.6 88.29 155.9 118.4 117.8C37.98 85.89 -4.308 156.6 30.62 235.6Z" class="" fill="url(#delapouite-mimic-chest-gradient-9)" filter="url(#shadow-9)"></path><path d="M136.7 124C101.9 167.6 66.56 210 38.37 257.4C41.08 264.6 43.91 271.9 46.72 279.3C81.11 229.5 114.5 178.4 160.4 132.5C152.2 129.5 144.2 126.6 136.7 124Z" class="" fill="#8b572a" fill-opacity="1" filter="url(#shadow-10)"></path><path d="M286.8 135.9C293.9 154.8 301.4 173.6 315.3 190.8C321.4 172 328.4 153.4 340.1 136.4C320.9 136.1 304.1 135.4 286.8 135.9Z" class="" fill="url(#delapouite-mimic-chest-gradient-11)" filter="url(#shadow-11)"></path><path d="M279.7 135.9C262.3 136.1 245.5 136.5 229.3 137.1C233.3 167.1 237.8 197.1 256.1 224.4C259.1 194.9 266.1 165.5 279.7 135.9Z" class="" fill="url(#delapouite-mimic-chest-gradient-12)" filter="url(#shadow-12)"></path><path d="M351.2 136.8C362.2 153 366.9 171 371.4 189.1C386.4 172.4 392.2 155.8 395.6 139.1C380.5 138 365.7 137.3 351.2 136.8Z" class="" fill="url(#delapouite-mimic-chest-gradient-13)" filter="url(#shadow-13)"></path><path d="M223 137.3C204.3 138 179.4 139 179.4 139C177.1 141.1 174.9 143.3 172.7 145.4C176.3 162.9 183.8 179.8 193.9 196.3C200.8 176.7 210 157 223 137.3Z" class="" fill="url(#delapouite-mimic-chest-gradient-14)" filter="url(#shadow-14)"></path><path d="M404.2 139.7C414.4 160.9 416.3 204.2 418.4 224.1C437.4 208.9 443.8 166.9 448.2 143.9C433.3 142.2 418.6 140.8 404.2 139.7Z" class="" fill="url(#delapouite-mimic-chest-gradient-15)" filter="url(#shadow-15)"></path><path d="M454.6 144.7C463.2 160.3 471.2 176.1 467.9 197.3C485.2 182.6 490.6 166.5 493.7 150.1C480.5 148 467.5 146.2 454.6 144.7Z" class="" fill="url(#delapouite-mimic-chest-gradient-16)" filter="url(#shadow-16)"></path><path d="M155.7 163.4C147.6 172.2 139.9 181.3 132.5 190.6C143.9 205.6 163.3 208.5 180.9 210C166.9 195.7 159.2 180.1 155.7 163.4Z" class="" fill="url(#delapouite-mimic-chest-gradient-17)" filter="url(#shadow-17)"></path><path d="M127.2 197.3C118.1 208.9 109.5 220.6 101.1 232.5C110.4 240.2 121.9 244.4 134.7 246.3C129.9 230.5 126.9 214.3 127.2 197.3Z" class="" fill="url(#delapouite-mimic-chest-gradient-18)" filter="url(#shadow-18)"></path><path d="M410.2 243.4C407.2 263.6 401.9 300.9 393.8 325.5C409 324.5 424.2 323.2 439.4 321.7C433.3 298.1 421.8 261.8 410.2 243.4Z" class="" fill="url(#delapouite-mimic-chest-gradient-19)" filter="url(#shadow-19)"></path><path d="M253.9 244C240.7 263.5 223.7 301 220.1 324.6C237.5 326 254.8 327 272.2 327.6C263.3 302.9 258.8 264.7 253.9 244Z" class="" fill="url(#delapouite-mimic-chest-gradient-20)" filter="url(#shadow-20)"></path><path d="M108 260.5C90.14 270.7 82.65 284.4 74.59 297.9C86.56 301.4 98.8 304.8 111.3 308C106.8 292.1 105 276.3 108 260.5Z" class="" fill="url(#delapouite-mimic-chest-gradient-21)" filter="url(#shadow-21)"></path><path d="M145.1 260.5C133.1 276.7 120.1 292.8 115.4 309C129.9 313.1 140 314.7 153.6 316.8C144.7 298 145.7 279.3 145.1 260.5Z" class="" fill="url(#delapouite-mimic-chest-gradient-22)" filter="url(#shadow-22)"></path><path d="M463.5 263.7C460.2 283.2 455.9 302.4 447.4 320.9C459.9 319.6 472.5 318.2 485 316.6L486.8 316.3C483.8 296.9 473.7 280.2 463.5 263.7Z" class="" fill="url(#delapouite-mimic-chest-gradient-23)" filter="url(#shadow-23)"></path><path d="M197.8 267.6C181 284.6 172.3 301.4 163.8 318.3C179.8 320.5 195.8 322.4 211.7 323.8C202.1 306.7 198.4 287.6 197.8 267.6Z" class="" fill="url(#delapouite-mimic-chest-gradient-24)" filter="url(#shadow-24)"></path><path d="M359.1 270.9C353.2 290.1 345.1 309.2 335.5 328C352.2 327.6 368.9 327 385.6 326C378.2 307.3 369.6 289 359.1 270.9Z" class="" fill="url(#delapouite-mimic-chest-gradient-25)" filter="url(#shadow-25)"></path><path d="M304.1 271.7C294.4 290.4 286.9 309.1 280.4 327.8C295.4 328.2 310.4 328.3 325.4 328.2C316.9 309.6 309.4 290.9 304.1 271.7Z" class="" fill="url(#delapouite-mimic-chest-gradient-26)" filter="url(#shadow-26)"></path><path d="M51.96 309.8C48.2 326.4 45.87 344.5 45.1 362.4C59.48 393.8 74.64 426.4 89.56 452.4L97.37 455.6L134.2 412.5C134.8 386 137.4 359.5 142.3 333.6C110.2 326.7 80.36 318.7 51.96 309.8Z" class="" fill="#8b572a" fill-opacity="1" filter="url(#shadow-27)"></path><path d="M478.1 335.5C441.8 339.9 405.6 343.1 369.3 344.8L369.3 454.1C333.7 462.1 294.5 458.4 263.5 454L263.5 345.2C229.1 343.7 194.7 340.7 160.3 335.8C155.7 359.7 153.1 384.2 152.3 408.9L208.5 484.6C283.8 491.8 356.7 491.1 428.5 486L480.5 415.1C481.3 388.4 481.1 361.8 478.1 335.5Z" class="" fill="url(#delapouite-mimic-chest-gradient-28)" filter="url(#shadow-28)"></path><path d="M351.3 345.5C328 346.2 304.8 346.4 281.5 345.8L281.5 438.3C304.8 441.6 327.4 443.8 351.3 439.6Z" class="" fill="#c9c9c9" fill-opacity="1" filter="url(#shadow-29)"></path><path d="M317.1 361.2C324.8 361.2 331 368.1 331 376.6C331 382.9 327.6 388.5 322.4 390.9L331 423L303.3 423L311.9 390.9C306.7 388.5 303.3 382.9 303.3 376.6C303.3 368.1 309.5 361.2 317.1 361.2Z" class="" fill="#4a4a4a" fill-opacity="1"></path><path d="M46.78 407.9C47 418 45.96 426.9 48.93 435.9L63.22 441.7C57.54 430.7 52.1 419.3 46.78 407.9Z" class="" fill="#f5a623" fill-opacity="1" filter="url(#shadow-31)"></path><path d="M152.2 438.9C152.5 452.1 153.3 465.2 154.5 478.2C164.4 479.6 174.3 480.9 184.2 482.1Z" class="" fill="#f5a623" fill-opacity="1" filter="url(#shadow-32)"></path><path d="M134.2 440L114.8 462.7L135.8 471.2C135 460.9 134.4 450.5 134.2 440Z" class="" fill="#f5a623" fill-opacity="1" filter="url(#shadow-33)"></path><path d="M479.2 447.4L452.2 484.2C460.7 483.5 469.1 482.7 477.5 481.9C478 470.4 478.6 458.9 479.2 447.4Z" class="" fill="#f5a623" fill-opacity="1" filter="url(#shadow-34)"></path></g></g></svg>