<?xml version="1.0" encoding="UTF-8" standalone="no"?>
<!DOCTYPE svg PUBLIC "-//W3C//DTD SVG 1.1//EN" "http://www.w3.org/Graphics/SVG/1.1/DTD/svg11.dtd">
<svg width="100%" height="100%" viewBox="0 0 512 512" version="1.1" xmlns="http://www.w3.org/2000/svg" xmlns:xlink="http://www.w3.org/1999/xlink" xml:space="preserve" xmlns:serif="http://www.serif.com/" style="fill-rule:evenodd;clip-rule:evenodd;">
    <path d="M429.95,429.95L256,502L82.05,429.95L10,256L82.05,82.05L256,10L429.95,82.05L502,256L429.95,429.95Z" style="fill:url(#_Linear1);fill-rule:nonzero;"/>
    <clipPath id="_clip2">
        <path d="M429.95,429.95L256,502L82.05,429.95L10,256L82.05,82.05L256,10L429.95,82.05L502,256L429.95,429.95Z" clip-rule="nonzero"/>
    </clipPath>
    <g clip-path="url(#_clip2)">
        <g transform="matrix(1.51007,0,0,1.51007,-132.534,-11.6509)">
            <g transform="matrix(0.8,0,0,0.8,51.2,51.2)">
                <path d="M70.574,17.27L65.704,35.314C89.932,41.857 111.724,50.887 131.182,62.018C109.906,77.778 95.875,104.723 95.875,135.332C95.875,148.925 98.645,161.795 103.582,173.287C81.762,193.652 68.578,222.685 68.578,260.791C68.578,331.471 111.435,392.515 173.428,421.796L142.718,492.156L163.094,492.156L190.688,428.94C193.698,430.017 196.738,431.03 199.818,431.96C203.378,434.72 207.004,437.21 210.686,439.447L197.656,492.157L216.936,492.157L227.881,447.837C234.737,450.383 241.723,452.061 248.781,452.844L248.781,492.156L267.471,492.156L267.471,452.8C275.343,451.894 283.121,449.864 290.726,446.744L301.938,492.156L321.188,492.156L307.748,437.738C311.148,435.516 314.498,433.078 317.784,430.395C320.993,429.327 324.173,428.174 327.321,426.939L355.781,492.155L376.157,492.155L344.357,419.292C403.583,389.127 444.097,329.51 444.097,260.79C444.097,223.676 431.587,195.17 410.777,174.893C416.16,162.997 419.212,149.566 419.212,135.333C419.212,104.833 405.284,77.973 384.139,62.189C403.777,50.855 425.591,41.779 449.535,35.313L444.665,17.27C418.405,24.362 394.452,34.515 372.915,47.27C338.831,28.43 295.725,19.106 252.701,19.156C211.793,19.204 170.971,27.731 138.046,44.604C117.819,33.21 95.346,23.96 70.576,17.271L70.574,17.27Z" style="fill:rgb(255,224,175);fill-rule:nonzero;"/>
                <path d="M252.707,38.67C289.153,38.626 325.662,45.375 354.791,59.018C309.679,90.91 276.873,135.218 257.641,186.808C238.314,134.672 205,88.95 157.073,56.388C184.88,44.644 218.763,38.708 252.708,38.666L252.707,38.67Z" style="fill:url(#_Linear3);fill-rule:nonzero;"/>
                <path d="M169.102,107.043C188.502,107.043 204.432,122.966 204.432,142.363C204.432,161.763 188.502,177.687 169.102,177.687C149.702,177.687 133.77,161.76 133.77,142.36C133.77,122.962 149.702,107.04 169.102,107.04L169.102,107.043Z" style="fill:rgb(139,87,42);fill-rule:nonzero;"/>
                <path d="M348.542,107.043C367.942,107.043 383.872,122.966 383.872,142.363C383.872,161.763 367.942,177.687 348.542,177.687C329.14,177.687 313.209,161.764 313.209,142.364C313.209,122.966 329.139,107.044 348.539,107.044L348.542,107.043Z" style="fill:rgb(139,87,42);fill-rule:nonzero;"/>
                <path d="M238.164,187.733C242.216,198.08 245.687,208.733 248.588,219.646L257.618,253.61L266.648,219.646C269.503,208.881 272.977,198.29 277.053,187.926C291.443,209.396 314.399,223.312 340.289,223.312C354.729,223.312 368.253,218.966 379.897,211.416C375.894,282.266 360.957,336.142 340.557,372.832C316.593,415.936 286.207,435.106 257.02,434.668C227.836,434.23 197.214,413.996 173.217,370.594C152.785,333.64 137.857,280.081 133.863,210.564C145.8,218.65 159.81,223.31 174.8,223.31C200.767,223.31 223.784,209.31 238.164,187.73L238.164,187.733Z" style="fill:url(#_Linear4);fill-rule:nonzero;"/>
                <path d="M112.898,189.88C113.331,190.49 113.762,191.1 114.208,191.696C116.373,273.031 132.598,335.752 156.861,379.638C160.382,386.018 164.233,392.21 168.399,398.188C119.679,369.926 87.267,318.894 87.267,260.794C87.267,228.768 96.493,206.31 112.899,189.881L112.898,189.88Z" style="fill:url(#_Linear5);fill-rule:nonzero;"/>
                <path d="M401.18,191.308C416.71,207.604 425.406,229.688 425.406,260.794C425.406,317.164 394.89,366.877 348.578,395.598C351.526,391.147 354.3,386.583 356.893,381.916C381.056,338.456 397.221,275.766 399.521,193.443C400.081,192.736 400.643,192.033 401.181,191.308L401.18,191.308Z" style="fill:url(#_Linear6);fill-rule:nonzero;"/>
                <path d="M163.684,250.36C159.931,256.623 157.588,264.89 157.588,273.6C157.588,293.665 169.683,309.515 184.408,309.515C196.938,309.515 207.762,297.93 210.618,282.05C205.926,286.148 200.146,288.39 194.162,288.39C178.182,288.39 164.739,271.774 163.684,250.36Z" style="fill:rgb(181,114,4);fill-rule:nonzero;"/>
                <path d="M349.596,252.837C348.54,274.25 335.1,290.867 319.119,290.867C313.134,290.867 307.356,288.625 302.661,284.527C305.519,300.407 316.341,311.993 328.871,311.993C343.597,311.993 355.081,296.143 355.081,276.077C355.081,267.367 353.349,259.1 349.597,252.837L349.595,252.837L349.596,252.837Z" style="fill:rgb(181,114,4);fill-rule:nonzero;"/>
                <path d="M280.866,281.807C277.356,294.901 266.559,304.987 256.336,304.987C246.352,304.987 235.726,294.93 232.393,282.48C231.58,285.877 230.641,289.51 230.641,293.276C230.641,312.501 242.231,327.686 256.339,327.686C270.447,327.686 282.036,312.501 282.036,293.276C282.036,289.29 281.776,285.376 280.868,281.806L280.866,281.806L280.866,281.807Z" style="fill:rgb(181,114,4);fill-rule:nonzero;"/>
                <path d="M315.906,348.513C312.471,365.065 301.698,377.526 288.456,377.526C280.216,377.526 272.704,372.926 267.432,365.38C268.17,383.706 279.497,398.442 293.129,398.442C307.236,398.442 318.825,382.58 318.825,363.356C318.825,357.949 317.522,353.079 315.905,348.512L315.906,348.513Z" style="fill:rgb(255,224,175);fill-rule:nonzero;"/>
                <path d="M200.27,349.86C198.976,354.028 198.518,358.55 198.518,363.357C198.518,382.581 210.108,398.442 224.215,398.442C237.848,398.442 248.59,383.705 249.328,365.379C244.056,372.924 236.544,377.525 228.303,377.525C215.387,377.525 203.989,365.79 200.271,349.859L200.27,349.86Z" style="fill:rgb(255,224,175);fill-rule:nonzero;"/>
            </g>
            <g transform="matrix(0.662222,0,0,0.662222,87.7667,-8.84007)">
                <ellipse cx="146.712" cy="268.44" rx="7.673" ry="29.635" style="fill:rgb(51,51,51);"/>
            </g>
            <g transform="matrix(0.662222,0,0,0.662222,232.876,-8.84007)">
                <ellipse cx="146.712" cy="268.44" rx="7.673" ry="29.635" style="fill:rgb(51,51,51);"/>
            </g>
            <g transform="matrix(1.16517,0.0203397,-0.0115583,0.662121,-36.5063,-13.0886)">
                <path d="M255.998,397.039L277.44,269.631L253.961,242.66L230.302,269.631L255.998,397.039Z" style="fill:rgb(227,170,80);"/>
            </g>
        </g>
    </g>
    <path d="M429.95,429.95L256,502L82.05,429.95L10,256L82.05,82.05L256,10L429.95,82.05L502,256L429.95,429.95Z" style="fill:none;fill-rule:nonzero;stroke:white;stroke-width:10px;"/>
    <defs>
        <linearGradient id="_Linear1" x1="0" y1="0" x2="1" y2="0" gradientUnits="userSpaceOnUse" gradientTransform="matrix(492,492,-492,492,10,10)"><stop offset="0" style="stop-color:rgb(80,227,194);stop-opacity:1"/><stop offset="1" style="stop-color:rgb(23,14,7);stop-opacity:1"/></linearGradient>
        <linearGradient id="_Linear3" x1="0" y1="0" x2="1" y2="0" gradientUnits="userSpaceOnUse" gradientTransform="matrix(9.07108e-15,148.142,-148.142,9.07108e-15,157.073,38.666)"><stop offset="0" style="stop-color:rgb(181,114,4);stop-opacity:1"/><stop offset="1" style="stop-color:rgb(139,87,42);stop-opacity:1"/></linearGradient>
        <linearGradient id="_Linear4" x1="0" y1="0" x2="1" y2="0" gradientUnits="userSpaceOnUse" gradientTransform="matrix(1.5121e-14,246.945,-246.945,1.5121e-14,133.863,187.73)"><stop offset="0" style="stop-color:rgb(139,87,42);stop-opacity:1"/><stop offset="1" style="stop-color:rgb(181,114,4);stop-opacity:1"/></linearGradient>
        <linearGradient id="_Linear5" x1="0" y1="0" x2="1" y2="0" gradientUnits="userSpaceOnUse" gradientTransform="matrix(1.27552e-14,208.308,-208.308,1.27552e-14,87.267,189.88)"><stop offset="0" style="stop-color:rgb(139,87,42);stop-opacity:1"/><stop offset="1" style="stop-color:rgb(181,114,4);stop-opacity:1"/></linearGradient>
        <linearGradient id="_Linear6" x1="0" y1="0" x2="1" y2="0" gradientUnits="userSpaceOnUse" gradientTransform="matrix(1.25092e-14,204.29,-204.29,1.25092e-14,348.578,191.308)"><stop offset="0" style="stop-color:rgb(139,87,42);stop-opacity:1"/><stop offset="1" style="stop-color:rgb(181,114,4);stop-opacity:1"/></linearGradient>
    </defs>
</svg>
