<svg xmlns="http://www.w3.org/2000/svg" viewBox="0 0 512 512" style="height: 512px; width: 512px;"><defs><filter id="shadow-1" height="300%" width="300%" x="-100%" y="-100%"><feFlood flood-color="rgba(0, 0, 0, 1)" result="flood"></feFlood><feComposite in="flood" in2="SourceGraphic" operator="atop" result="composite"></feComposite><feGaussianBlur in="composite" stdDeviation="10" result="blur"></feGaussianBlur><feOffset dx="0" dy="0" result="offset"></feOffset><feComposite in="SourceGraphic" in2="offset" operator="over"></feComposite></filter><filter id="shadow-2" height="300%" width="300%" x="-100%" y="-100%"><feFlood flood-color="rgba(0, 0, 0, 1)" result="flood"></feFlood><feComposite in="flood" in2="SourceGraphic" operator="atop" result="composite"></feComposite><feGaussianBlur in="composite" stdDeviation="10" result="blur"></feGaussianBlur><feOffset dx="0" dy="0" result="offset"></feOffset><feComposite in="SourceGraphic" in2="offset" operator="over"></feComposite></filter><filter id="shadow-3" height="300%" width="300%" x="-100%" y="-100%"><feFlood flood-color="rgba(0, 0, 0, 1)" result="flood"></feFlood><feComposite in="flood" in2="SourceGraphic" operator="atop" result="composite"></feComposite><feGaussianBlur in="composite" stdDeviation="10" result="blur"></feGaussianBlur><feOffset dx="0" dy="0" result="offset"></feOffset><feComposite in="SourceGraphic" in2="offset" operator="over"></feComposite></filter><filter id="shadow-8" height="300%" width="300%" x="-100%" y="-100%"><feFlood flood-color="rgba(0, 0, 0, 1)" result="flood"></feFlood><feComposite in="flood" in2="SourceGraphic" operator="atop" result="composite"></feComposite><feGaussianBlur in="composite" stdDeviation="10" result="blur"></feGaussianBlur><feOffset dx="0" dy="0" result="offset"></feOffset><feComposite in="SourceGraphic" in2="offset" operator="over"></feComposite></filter><filter id="shadow-14" height="300%" width="300%" x="-100%" y="-100%"><feFlood flood-color="rgba(0, 0, 0, 1)" result="flood"></feFlood><feComposite in="flood" in2="SourceGraphic" operator="atop" result="composite"></feComposite><feGaussianBlur in="composite" stdDeviation="10" result="blur"></feGaussianBlur><feOffset dx="0" dy="0" result="offset"></feOffset><feComposite in="SourceGraphic" in2="offset" operator="over"></feComposite></filter><filter id="shadow-17" height="300%" width="300%" x="-100%" y="-100%"><feFlood flood-color="rgba(0, 0, 0, 1)" result="flood"></feFlood><feComposite in="flood" in2="SourceGraphic" operator="atop" result="composite"></feComposite><feGaussianBlur in="composite" stdDeviation="10" result="blur"></feGaussianBlur><feOffset dx="0" dy="0" result="offset"></feOffset><feComposite in="SourceGraphic" in2="offset" operator="over"></feComposite></filter><filter id="shadow-18" height="300%" width="300%" x="-100%" y="-100%"><feFlood flood-color="rgba(0, 0, 0, 1)" result="flood"></feFlood><feComposite in="flood" in2="SourceGraphic" operator="atop" result="composite"></feComposite><feGaussianBlur in="composite" stdDeviation="10" result="blur"></feGaussianBlur><feOffset dx="0" dy="0" result="offset"></feOffset><feComposite in="SourceGraphic" in2="offset" operator="over"></feComposite></filter><filter id="shadow-19" height="300%" width="300%" x="-100%" y="-100%"><feFlood flood-color="rgba(0, 0, 0, 1)" result="flood"></feFlood><feComposite in="flood" in2="SourceGraphic" operator="atop" result="composite"></feComposite><feGaussianBlur in="composite" stdDeviation="10" result="blur"></feGaussianBlur><feOffset dx="0" dy="0" result="offset"></feOffset><feComposite in="SourceGraphic" in2="offset" operator="over"></feComposite></filter><filter id="shadow-20" height="300%" width="300%" x="-100%" y="-100%"><feFlood flood-color="rgba(0, 0, 0, 1)" result="flood"></feFlood><feComposite in="flood" in2="SourceGraphic" operator="atop" result="composite"></feComposite><feGaussianBlur in="composite" stdDeviation="10" result="blur"></feGaussianBlur><feOffset dx="0" dy="0" result="offset"></feOffset><feComposite in="SourceGraphic" in2="offset" operator="over"></feComposite></filter><filter id="shadow-21" height="300%" width="300%" x="-100%" y="-100%"><feFlood flood-color="rgba(0, 0, 0, 1)" result="flood"></feFlood><feComposite in="flood" in2="SourceGraphic" operator="atop" result="composite"></feComposite><feGaussianBlur in="composite" stdDeviation="10" result="blur"></feGaussianBlur><feOffset dx="0" dy="0" result="offset"></feOffset><feComposite in="SourceGraphic" in2="offset" operator="over"></feComposite></filter><filter id="shadow-22" height="300%" width="300%" x="-100%" y="-100%"><feFlood flood-color="rgba(0, 0, 0, 1)" result="flood"></feFlood><feComposite in="flood" in2="SourceGraphic" operator="atop" result="composite"></feComposite><feGaussianBlur in="composite" stdDeviation="10" result="blur"></feGaussianBlur><feOffset dx="0" dy="0" result="offset"></feOffset><feComposite in="SourceGraphic" in2="offset" operator="over"></feComposite></filter><filter id="shadow-23" height="300%" width="300%" x="-100%" y="-100%"><feFlood flood-color="rgba(0, 0, 0, 1)" result="flood"></feFlood><feComposite in="flood" in2="SourceGraphic" operator="atop" result="composite"></feComposite><feGaussianBlur in="composite" stdDeviation="10" result="blur"></feGaussianBlur><feOffset dx="0" dy="0" result="offset"></feOffset><feComposite in="SourceGraphic" in2="offset" operator="over"></feComposite></filter><filter id="shadow-24" height="300%" width="300%" x="-100%" y="-100%"><feFlood flood-color="rgba(0, 0, 0, 1)" result="flood"></feFlood><feComposite in="flood" in2="SourceGraphic" operator="atop" result="composite"></feComposite><feGaussianBlur in="composite" stdDeviation="10" result="blur"></feGaussianBlur><feOffset dx="0" dy="0" result="offset"></feOffset><feComposite in="SourceGraphic" in2="offset" operator="over"></feComposite></filter><filter id="shadow-25" height="300%" width="300%" x="-100%" y="-100%"><feFlood flood-color="rgba(0, 0, 0, 1)" result="flood"></feFlood><feComposite in="flood" in2="SourceGraphic" operator="atop" result="composite"></feComposite><feGaussianBlur in="composite" stdDeviation="10" result="blur"></feGaussianBlur><feOffset dx="0" dy="0" result="offset"></feOffset><feComposite in="SourceGraphic" in2="offset" operator="over"></feComposite></filter><filter id="shadow-26" height="300%" width="300%" x="-100%" y="-100%"><feFlood flood-color="rgba(0, 0, 0, 1)" result="flood"></feFlood><feComposite in="flood" in2="SourceGraphic" operator="atop" result="composite"></feComposite><feGaussianBlur in="composite" stdDeviation="10" result="blur"></feGaussianBlur><feOffset dx="0" dy="0" result="offset"></feOffset><feComposite in="SourceGraphic" in2="offset" operator="over"></feComposite></filter><filter id="shadow-27" height="300%" width="300%" x="-100%" y="-100%"><feFlood flood-color="rgba(0, 0, 0, 1)" result="flood"></feFlood><feComposite in="flood" in2="SourceGraphic" operator="atop" result="composite"></feComposite><feGaussianBlur in="composite" stdDeviation="10" result="blur"></feGaussianBlur><feOffset dx="0" dy="0" result="offset"></feOffset><feComposite in="SourceGraphic" in2="offset" operator="over"></feComposite></filter><filter id="shadow-28" height="300%" width="300%" x="-100%" y="-100%"><feFlood flood-color="rgba(0, 0, 0, 1)" result="flood"></feFlood><feComposite in="flood" in2="SourceGraphic" operator="atop" result="composite"></feComposite><feGaussianBlur in="composite" stdDeviation="10" result="blur"></feGaussianBlur><feOffset dx="0" dy="0" result="offset"></feOffset><feComposite in="SourceGraphic" in2="offset" operator="over"></feComposite></filter><filter id="shadow-29" height="300%" width="300%" x="-100%" y="-100%"><feFlood flood-color="rgba(0, 0, 0, 1)" result="flood"></feFlood><feComposite in="flood" in2="SourceGraphic" operator="atop" result="composite"></feComposite><feGaussianBlur in="composite" stdDeviation="10" result="blur"></feGaussianBlur><feOffset dx="0" dy="0" result="offset"></feOffset><feComposite in="SourceGraphic" in2="offset" operator="over"></feComposite></filter><filter id="shadow-31" height="300%" width="300%" x="-100%" y="-100%"><feFlood flood-color="rgba(0, 0, 0, 1)" result="flood"></feFlood><feComposite in="flood" in2="SourceGraphic" operator="atop" result="composite"></feComposite><feGaussianBlur in="composite" stdDeviation="10" result="blur"></feGaussianBlur><feOffset dx="0" dy="0" result="offset"></feOffset><feComposite in="SourceGraphic" in2="offset" operator="over"></feComposite></filter><filter id="shadow-32" height="300%" width="300%" x="-100%" y="-100%"><feFlood flood-color="rgba(0, 0, 0, 1)" result="flood"></feFlood><feComposite in="flood" in2="SourceGraphic" operator="atop" result="composite"></feComposite><feGaussianBlur in="composite" stdDeviation="10" result="blur"></feGaussianBlur><feOffset dx="0" dy="0" result="offset"></feOffset><feComposite in="SourceGraphic" in2="offset" operator="over"></feComposite></filter><filter id="shadow-33" height="300%" width="300%" x="-100%" y="-100%"><feFlood flood-color="rgba(0, 0, 0, 1)" result="flood"></feFlood><feComposite in="flood" in2="SourceGraphic" operator="atop" result="composite"></feComposite><feGaussianBlur in="composite" stdDeviation="10" result="blur"></feGaussianBlur><feOffset dx="0" dy="0" result="offset"></feOffset><feComposite in="SourceGraphic" in2="offset" operator="over"></feComposite></filter><filter id="shadow-34" height="300%" width="300%" x="-100%" y="-100%"><feFlood flood-color="rgba(0, 0, 0, 1)" result="flood"></feFlood><feComposite in="flood" in2="SourceGraphic" operator="atop" result="composite"></feComposite><feGaussianBlur in="composite" stdDeviation="10" result="blur"></feGaussianBlur><feOffset dx="0" dy="0" result="offset"></feOffset><feComposite in="SourceGraphic" in2="offset" operator="over"></feComposite></filter><linearGradient x1="0" x2="1" y1="0" y2="1" id="lorc-worm-mouth-gradient-0"><stop offset="0%" stop-color="#4a4a4a" stop-opacity="1"></stop><stop offset="100%" stop-color="#170e07" stop-opacity="1"></stop></linearGradient><linearGradient x1="0" x2="1" y1="0" y2="1" id="lorc-worm-mouth-gradient-1"><stop offset="0%" stop-color="#ffe0af" stop-opacity="1"></stop><stop offset="100%" stop-color="#643105" stop-opacity="1"></stop></linearGradient><linearGradient x1="0" x2="1" y1="0" y2="1" id="lorc-worm-mouth-gradient-18"><stop offset="0%" stop-color="#b57204" stop-opacity="1"></stop><stop offset="100%" stop-color="#ffffff" stop-opacity="1"></stop></linearGradient><linearGradient x1="0" x2="0" y1="0" y2="1" id="lorc-worm-mouth-gradient-19"><stop offset="0%" stop-color="#ffffff" stop-opacity="1"></stop><stop offset="100%" stop-color="#ffe0af" stop-opacity="1"></stop></linearGradient><linearGradient x1="0" x2="0" y1="0" y2="1" id="lorc-worm-mouth-gradient-20"><stop offset="0%" stop-color="#ffffff" stop-opacity="1"></stop><stop offset="100%" stop-color="#ffe0af" stop-opacity="1"></stop></linearGradient><linearGradient x1="0" x2="0" y1="0" y2="1" id="lorc-worm-mouth-gradient-21"><stop offset="0%" stop-color="#ffffff" stop-opacity="1"></stop><stop offset="100%" stop-color="#b57204" stop-opacity="1"></stop></linearGradient><linearGradient x1="0" x2="0" y1="0" y2="1" id="lorc-worm-mouth-gradient-22"><stop offset="0%" stop-color="#ffffff" stop-opacity="1"></stop><stop offset="100%" stop-color="#b57204" stop-opacity="1"></stop></linearGradient><linearGradient x1="0" x2="1" y1="0" y2="1" id="lorc-worm-mouth-gradient-23"><stop offset="0%" stop-color="#ffffff" stop-opacity="1"></stop><stop offset="100%" stop-color="#ffe0af" stop-opacity="1"></stop></linearGradient><linearGradient x1="0" x2="0" y1="0" y2="1" id="lorc-worm-mouth-gradient-24"><stop offset="0%" stop-color="#ffffff" stop-opacity="1"></stop><stop offset="100%" stop-color="#ffe0af" stop-opacity="1"></stop></linearGradient><linearGradient x1="0" x2="0" y1="0" y2="1" id="lorc-worm-mouth-gradient-25"><stop offset="0%" stop-color="#ffffff" stop-opacity="1"></stop><stop offset="100%" stop-color="#ffe0af" stop-opacity="1"></stop></linearGradient><linearGradient x1="0" x2="0" y1="0" y2="1" id="lorc-worm-mouth-gradient-26"><stop offset="0%" stop-color="#ffffff" stop-opacity="1"></stop><stop offset="100%" stop-color="#ffe0af" stop-opacity="1"></stop></linearGradient><linearGradient x1="0" x2="0" y1="0" y2="1" id="lorc-worm-mouth-gradient-28"><stop offset="0%" stop-color="#b57204" stop-opacity="1"></stop><stop offset="100%" stop-color="#643105" stop-opacity="1"></stop></linearGradient></defs><polygon points="429.95,429.95,256,502,82.05,429.95,10,256,82.05,82.05,256,10,429.95,82.05,502,256" fill="url(#lorc-worm-mouth-gradient-0)" stroke="#fff" stroke-opacity="1" stroke-width="10"></polygon><g class="" style="" transform="translate(0,0)"><g transform="translate(51.2, 51.2) scale(0.8, 0.8) rotate(0, 256, 256) skewX(0) skewY(0)"><path d="M224.53 31.844C217.288 31.828 210.084 32.892 203.156 35C168.603 45.482 140.581 81.607 152.126 137.25C170.62 131.613 190.206 135.98 207.094 146.094C220.266 153.984 232.359 165.144 242.906 178C245.971 161.292 251.856 145.364 259.969 131.844C270.077 114.994 284.201 101.471 301.155 96.656C284.449 50.406 253.883 31.931 224.53 31.844Z" class="" fill="#bd10e0" fill-opacity="1" filter="url(#shadow-2)"></path><path d="M407.72 95.374C391.083 95.687 372.843 101.078 354.125 113.156C366.755 124.87 375.878 138.196 379.125 153.562C381.803 166.238 380.095 179.712 374.095 193.469C389.735 191.799 404.125 194.839 416.187 201.437C430.347 209.181 441.299 221.207 449.094 234.749C470.109 215.809 480.351 195.965 483.281 177.655C486.621 156.788 480.571 137.502 468.314 122.685C454.524 106.019 432.99 94.901 407.72 95.375Z" class="" fill="#bd10e0" fill-opacity="1" filter="url(#shadow-3)"></path><path d="M301.093 118C294.823 121.093 288.761 126.29 283.249 133.313C313.463 137.348 340.245 152.133 359.655 173.688C360.7 168.031 360.565 162.758 359.499 157.718C358.454 152.771 356.393 147.88 353.374 143.031C338.058 131.393 320.342 122.761 301.094 118.001Z" class="" fill="#9013fe" fill-opacity="1"></path><path d="M168.47 154.375C167.736 154.388 167.01 154.443 166.28 154.5C152.334 168.06 141.115 184.396 133.562 202.656C133.312 209.796 134.268 216.254 136.5 221.936C138.135 226.116 140.459 229.993 143.375 233.406C149.215 203.438 165.722 177.296 188.781 159.094C181.814 155.926 175.053 154.259 168.471 154.374Z" class="" fill="#9013fe" fill-opacity="1"></path><path d="M269.656 157.438C267.288 163.356 265.336 169.624 263.844 176.094C265.083 176.035 266.323 176.004 267.564 176C296.764 176 322.292 191.263 336.687 214.25L345.219 203.062C346.338 201.599 347.421 200.109 348.469 198.594C330.627 174.164 302.012 158.101 269.655 157.438Z" class="" fill="#9b9b9b" fill-opacity="1"></path><path d="M211.75 174.468C187.073 191.102 170.138 218.416 167.72 249.75C169.533 250.498 171.41 251.236 173.406 251.938L186.094 256.375C186.498 227.355 201.924 202.058 225 187.937C220.768 183.037 216.304 178.505 211.75 174.469Z" class="" fill="#9b9b9b" fill-opacity="1"></path><path d="M116.5 181.75C60.38 182.274 30.267 216.898 26.375 252.563C24.289 271.678 29.858 291.098 44.125 306.688C56.645 320.368 76.091 331.308 104.063 335.563C103.118 319.958 105.683 303.92 113.25 289.656C119.693 277.511 130.02 267.022 144 259.812C131.424 251.626 122.58 241.337 117.844 229.282C112.101 214.658 112.392 198.486 116.5 181.75Z" class="" fill="#bd10e0" fill-opacity="1" filter="url(#shadow-8)"></path><path d="M267.188 199.313C264.973 199.313 262.778 199.445 260.625 199.688C260.545 201.811 260.525 203.924 260.562 206.031L260.812 219.721C262.919 219.371 265.051 219.193 267.187 219.189C288.607 219.189 305.75 236.299 305.75 257.719C305.75 279.139 288.608 296.282 267.187 296.282C245.767 296.282 228.625 279.142 228.625 257.722C228.625 242.792 236.953 229.974 249.25 223.564L241.937 211.377C240.977 209.777 239.984 208.197 238.969 206.627C220.984 216.607 208.749 235.78 208.749 257.721C208.749 277.709 218.906 295.423 234.312 305.971L234.999 304.781L234.999 306.439C244.243 312.576 255.312 316.157 267.187 316.157C299.347 316.157 325.593 289.881 325.593 257.72C325.593 225.557 299.348 199.312 267.187 199.312Z" class="selected" fill="#4a4a4a" fill-opacity="1"></path><path d="M383.625 212.813C388.929 226.71 391.845 241.789 391.845 257.563C391.845 275.203 388.215 291.996 381.655 307.219C388.773 309.141 395.121 309.471 400.938 308.561C406.954 292.711 410.25 275.521 410.25 257.561C410.25 243.903 408.34 230.673 404.78 218.155C398.41 214.958 391.418 212.997 383.625 212.811Z" class="" fill="#9013fe" fill-opacity="1"></path><path d="M359.345 217.5C358.588 217.792 357.831 218.053 357.062 218.375L342.187 224.625C346.752 234.994 349.105 246.201 349.094 257.531C349.1 267.96 347.106 278.293 343.219 287.971L359.436 297.313C364.736 285.113 367.686 271.663 367.686 257.533C367.686 243.306 364.71 229.765 359.343 217.501Z" class="" fill="#9b9b9b" fill-opacity="1"></path><path d="M186.78 268.47L171.906 271.25C170.74 271.47 169.612 271.714 168.5 271.97C172.74 301.218 189.635 326.428 213.47 341.78C214.41 340.315 215.35 338.8 216.28 337.188L222.875 325.75C203.56 313.1 189.977 292.466 186.781 268.47Z" class="" fill="#9b9b9b" fill-opacity="1"></path><path d="M143.72 283.375C138.2 287.83 134.067 293.133 130.938 299.031C130.475 299.915 130.037 300.812 129.625 301.721C138.145 328.145 154.067 351.225 175 368.501C176.678 368.396 178.348 368.188 180 367.876C185.402 366.846 190.662 364.734 195.78 361.188C169.528 343.253 150.45 315.588 143.72 283.376Z" class="" fill="#9013fe" fill-opacity="1"></path><path d="M451.5 295.813C441.48 309.821 429.422 320.553 414.594 325.719C402.364 329.979 388.777 329.989 374.374 325.779C378.007 341.079 376.798 355.765 371.781 368.562C365.891 383.592 355.359 395.958 342.907 405.405C364.359 423.863 385.339 431.505 403.877 432.093C424.997 432.763 443.357 424.315 456.501 410.28C481.024 384.098 487.651 338.732 451.501 295.813Z" class="" fill="#bd10e0" filter="url(#shadow-14)" fill-opacity="1"></path><path d="M338.875 297.125C324.98 322.15 298.3 339.03 267.562 339.03C255.972 339.03 244.968 336.612 235 332.28L235 342.188C235 345.833 235.242 349.223 235.656 352.438C245.937 355.899 256.714 357.662 267.562 357.656C301.272 357.656 331.129 340.936 349.282 315.344C348.712 314.238 348.118 313.144 347.5 312.064L338.875 297.124Z" class="" fill="#9b9b9b" fill-opacity="1"></path><path d="M356.655 344.719C333.867 368.304 301.893 382.969 266.469 382.969C260.339 382.969 254.329 382.534 248.436 381.686C250.377 383.823 252.488 385.798 254.749 387.593C262.879 394.081 273.165 398.3 284.062 400.28C303.935 397.861 323.078 391.293 340.249 381C345.812 375.108 350.279 368.428 353.093 361.25C355.137 356.035 356.421 350.537 356.655 344.72Z" class="" fill="#9013fe" fill-opacity="1"></path><path d="M218.595 367.529C208.225 378.373 196.47 385.167 183.75 387.593C168.315 390.536 152.473 387.256 136.78 380.123C126.933 435.37 155.39 471.366 189.72 481.78C208.12 487.363 228.262 485.485 246.22 474.344C261.977 464.567 276.307 447.457 285.656 420.75C270.156 418.792 254.863 413.348 242.25 403.28C231.505 394.705 223.097 382.6 218.594 367.53Z" class="" fill="#bd10e0" filter="url(#shadow-17)" fill-opacity="1"></path></g></g></svg>