<svg xmlns="http://www.w3.org/2000/svg" viewBox="0 0 512 512" style="height: 512px; width: 512px;"><defs><linearGradient x1="0" x2="0" y1="0" y2="1" id="lorc-rock-gradient-0"><stop offset="0%" stop-color="#8fd5ff" stop-opacity="1"></stop><stop offset="100%" stop-color="#8c4100" stop-opacity="1"></stop></linearGradient><linearGradient x1="0" x2="0" y1="0" y2="1" id="lorc-rock-gradient-1"><stop offset="0%" stop-color="#000000" stop-opacity="1"></stop><stop offset="100%" stop-color="#c9c9c9" stop-opacity="1"></stop></linearGradient><linearGradient x1="0" x2="1" y1="0" y2="1" id="lorc-rock-gradient-2"><stop offset="0%" stop-color="#9b9b9b" stop-opacity="1"></stop><stop offset="100%" stop-color="#000000" stop-opacity="1"></stop></linearGradient><linearGradient x1="0" x2="1" y1="0" y2="1" id="lorc-rock-gradient-5"><stop offset="0%" stop-color="#4a4a4a" stop-opacity="1"></stop><stop offset="100%" stop-color="#000000" stop-opacity="1"></stop></linearGradient><linearGradient x1="0" x2="0" y1="0" y2="1" id="lorc-rock-gradient-6"><stop offset="0%" stop-color="#d0021b" stop-opacity="1"></stop><stop offset="100%" stop-color="#f8e71c" stop-opacity="1"></stop></linearGradient><linearGradient x1="0" x2="0" y1="0" y2="1" id="lorc-rock-gradient-7"><stop offset="0%" stop-color="#d0021b" stop-opacity="1"></stop><stop offset="100%" stop-color="#f8e71c" stop-opacity="1"></stop></linearGradient><linearGradient x1="0" x2="0" y1="0" y2="1" id="lorc-rock-gradient-8"><stop offset="0%" stop-color="#d0021b" stop-opacity="1"></stop><stop offset="100%" stop-color="#f8e71c" stop-opacity="1"></stop></linearGradient><linearGradient x1="0" x2="0" y1="0" y2="1" id="lorc-rock-gradient-9"><stop offset="0%" stop-color="#d0021b" stop-opacity="1"></stop><stop offset="100%" stop-color="#f8e71c" stop-opacity="1"></stop></linearGradient><linearGradient x1="0" x2="0" y1="0" y2="1" id="lorc-rock-gradient-10"><stop offset="0%" stop-color="#d0021b" stop-opacity="1"></stop><stop offset="100%" stop-color="#f8e71c" stop-opacity="1"></stop></linearGradient><linearGradient x1="0" x2="0" y1="0" y2="1" id="lorc-rock-gradient-11"><stop offset="0%" stop-color="#d0021b" stop-opacity="1"></stop><stop offset="100%" stop-color="#f8e71c" stop-opacity="1"></stop></linearGradient></defs><polygon points="429.95,429.95,256,502,82.05,429.95,10,256,82.05,82.05,256,10,429.95,82.05,502,256" fill="url(#lorc-rock-gradient-0)" stroke="#fff" stroke-opacity="1" stroke-width="10"></polygon><g class="" style="" transform="translate(0,0)"><g transform="translate(51.2, 51.2) scale(0.8, 0.8) rotate(0, 256, 256) skewX(0) skewY(0)"><path d="M228.813 23L68.75 72.28L39.5 182.095L87.03 160.875L97.47 156.22L99.97 167.375L108.72 206.5L115.125 235.03L93.375 215.5L77.655 201.375L49.437 233.719L190.094 369.719L199.75 329.029L207.28 297.155L217.687 328.218L272.407 491.81L432.343 465.5L478.093 262.562L393.53 113.844L228.814 23Z" class="" fill="url(#lorc-rock-gradient-2)"></path><path d="M171.125 72.875L143.312 112.781L140.062 186.221L112.875 97.281L171.125 72.876Z" class="" fill="#000000" fill-opacity="1"></path><path d="M188.969 166.281L302.093 321.531L407 355.407L299.625 354.563L188.969 226.563L188.969 166.283Z" class="" fill="#000000" fill-opacity="1"></path><path d="M79.312 330.25L219.437 483.375L213.874 417.5L79.311 330.25Z" class="selected" fill="url(#lorc-rock-gradient-5)"></path></g></g></svg>